<?xml version="1.0" encoding="UTF-8"?>
<svg id="Layer_2" data-name="Layer 2" xmlns="http://www.w3.org/2000/svg" viewBox="0 0 943.78 198.79">
  <defs>
    <style>
      .cls-1 {
        fill: none;
        stroke: #000;
        stroke-miterlimit: 10;
      }
    </style>
  </defs>
  <g id="Layer_1-2" data-name="Layer 1">
    <path class="cls-1" d="M153.28,130.43c-6.46.11-12.91.41-19.22,1.32-4.55.83-8.74,3.34-13.29,4.03-2.64.5-5.44-.97-5.09-3.89.25-2.96,3.64-4.4,6.15-5.36,5.08-1.75,9.86-4.22,14.4-7.1,3.07-1.73,6.19-3.41,9.12-5.52,5.3-3.95,11.2-6.71,16.41-10.8,6.01-4.96,12.99-8.82,18.89-13.98,3.08-2.69,6.53-4.64,9.82-7.07,3.78-2.78,6.7-5.97,9.9-9.18,2.16-2.2,4.73-3.78,6.71-6.23,3.56-4.32,2.09-8.7-1.66-12.35-1.95-1.98-3.71-4.17-6.02-5.72-2.24-1.53-4.99-1.82-7.62-1.79-2.46,0-3.98-.17-6.45.29-4.37,1-9.64,2.05-13.66,3.58-1.67.7-3.22,1.45-4.98,2.13-2.31.92-4.67,1.59-6.98,2.5-2.39.92-4.74,2.27-7.15,3.25-19.87,7.57-14.12,8.3-24.68,24.49-4.74,6.37-9.61,12.58-14.3,18.99-4.7,5.86-9.39,11.75-13.82,17.86-2.96,3.71-5.84,7.45-8.68,11.24-2.91,3.76-6.33,6.95-9.24,10.68-3.42,4.61-7.4,8.69-11.44,12.85-6.37,6.48-13.56,12.46-19.94,18.81-2.19,2.12-4.78,3.9-7.15,5.82-2.86,2.25-4.9,4.48-7.72,6.44-3.3,2.34-6.7,4.38-10.39,6.3-4.17,2.08-8.48,4.55-13.23,4.84-2.93.14-5.92-.98-8.17-2.93-6.45-5.56-1.93-14.56,1.04-20.77,3.14-6.29,6.41-12.75,11.35-17.9,7.33-7.85,15.19-15.11,23.03-22.38,6.43-5.72,12.85-11.68,19.62-17.13,7.09-5.58,14.03-11.47,20.83-17.35,1.25-1.03,3.02-2.33,3.73-3.64,2.44-4.69-11.39-5.03-13.07-16.55-.4-2.56-.25-5.21-.34-7.91-.1-2.81-.38-5.6-.09-8.39.82-7.73,5.15-14.53,8.81-21.2.98-1.88,1.8-3.76,2.87-5.53,1.13-1.92,2.96-3.72,4.22-5.21,1.91-2.18,3.39-4.64,5.26-6.99,2.16-2.62,4.68-5.36,7.32-7.5,1.67-1.31,3.12-2.08,4.79-3.52,2.09-1.81,4.13-4.11,6.46-5.72,1.71-1.25,3.64-2.1,5.59-2.9,3.49-1.39,6.99-2.91,10.7-2.85,6.9.24,15.94,3.26,20.49,8.65,2.39,3.01,4.54,6.42,5.42,10.19,1.02,6.47.56,13.29-1.34,19.55-.27,2.3-5.46,12-2.36,12.73,1.15.3,3-.64,4.19-1.09,4.36-1.61,8.62-3.4,12.61-5.68,5.36-2.33,11.15-4.16,16.96-4.9,3.51-.46,6.99-1.31,10.56-.83,3.81.58,7.83,1.09,11.22,3.04,4.25,2.78,7.09,7.37,10.53,11.09,5.28,5.57,5.02,10.96.08,16.67-1.99,2.53-3.8,5.19-6.09,7.53-2.44,2.43-5.32,4.15-7.83,6.36-1.59,1.36-3.03,2.88-4.58,4.28-4.4,3.87-9.78,6.76-14.5,10.05-5.3,3.43-10.21,7.44-15.43,11-4.43,3.19-8.97,5.79-13.62,8.65-8.54,6.11,2.82,5.13,7.53,5.14,5.97.21,11.89.05,17.35,2.63,3.92,2.19,8.34,4.47,11.41,7.56,4.8,5.24,8.15,12.78,5.14,19.72-3.89,9.46-12.27,15.85-19.96,22.23-4.47,4.2-10.25,6.58-15.86,8.74-8.02,2.33-15.97,5.64-24.21,7.17-3.42.48-6.93.65-10.38.65-5.69.27-10.83-2.05-15.67-4.87-5.95-3.19-10.48-8.12-14.88-13.14-3.16-3.29-6.58-7.54-5.3-12.36.53-1.93.94-3.77,2.17-5.44,2.8-3.25,6.89-5.18,10.91-6.94,3.8-1.77,7.81-.99,11.81-.45,2.95.33,6.32.97,9.21,2.25.58.27,4.09,1.88,2.38,2.21-1.76.02-6.31-1.28-8.88-1.23-7.2-.37-14.87,2.34-19.01,8.44-5.39,9.05,7.61,16.92,14.05,21.16,4.41,2.51,9.57,3.23,14.57,3.46,7.1-.02,13.96-2.57,20.45-5.15,2.22-.84,4.52-1.28,6.8-2.05,3.1-1.1,5.98-2.63,8.95-4.21,7.87-3.9,14.79-9.62,20.46-16.24,6.09-6.17,7.41-15.3.31-21.25-3.21-2.75-7.32-4.26-11.48-4.72-2.17-.31-4.31-.85-6.5-1.03-3.6-.41-6.65.23-10.22.41h-.09ZM96.7,85.56c2.71-1.98,5.45-3.81,7.96-6.09,1.17-1.01,2.36-2.07,3.64-2.92,2.12-1.41,4.69-2.18,6.69-3.54.89-.61,1.73-1.6,2.68-2.47,1.09-.99,2.21-1.83,3.41-2.77,2.51-1.89,5.35-3.28,7.97-4.99,2.45-1.58,4.6-3.8,6.34-6.14,1.3-1.81,2.25-4.08,3.32-6.16,2-3.81,4.13-7.45,5.16-11.68,1.07-3.65,2.17-7.54,2.04-11.42-.05-4.8-.47-9.56-3.52-13.45-2.34-3.28-4.97-6.58-9.25-7.22-3.76-.66-7.8-.58-11.28.58-2.45.85-5.08,2.34-7.54,3.44-1.12.5-2.25,1-3.3,1.59-2.46,1.39-4.58,3.46-6.65,5.41-2.23,1.95-3.99,4.12-5.96,6.34-1.66,1.83-3.56,3.6-5.1,5.51-1.12,1.4-2.07,2.85-3.12,4.26-2.47,3.05-4.13,6.64-5.98,10.09-1.4,2.62-3.39,4.75-4.73,7.4-1.61,3.32-2.74,6.8-3.49,10.47-.47,2.64-.4,5.34-.57,7.96-.2,3.86-.77,8.82,1.06,12.45,1.75,3.08,7.1,8.46,10.86,8.52,3.78.17,6.43-3.03,9.28-5.1l.07-.06h0ZM18.23,189.47c4.43-2.67,8.86-5.42,13.09-8.42,2.96-2.23,5.84-4.91,8.64-7.22,7.11-5.77,13.86-11.9,20.14-18.63,3.92-4.04,8.19-8.05,12.18-12.03,2.57-2.94,5.11-6.1,7.56-9.03,1.25-1.57,2.48-3.27,3.87-4.76,1.26-1.37,2.58-2.6,3.76-4.04,2.04-2.49,3.57-5.25,5.74-7.7,1.66-1.95,3.32-3.86,4.74-5.87,1.62-2.48,3.67-4.47,5.57-6.68,1.06-1.34,1.73-2.89,3.04-4.71,1.89-2.61,4.71-4.88,6.49-7.5.87-1.2,1.64-2.45,2.43-3.71,1.6-2.61,3.08-5.04,4.89-7.43.81-1.13,2.83-3.68,1.71-4.45-.74-.51-3.39.73-4.72,1.67-2.98,1.9-5.71,4.16-8.65,6.11-1.3.89-2.66,1.78-3.92,2.71-3.29,2.43-5.78,5.18-9,7.68-1.41,1.13-2.86,2.16-4.36,3.14-5.52,3.67-10.84,7.89-15.94,12.11-1.76,1.4-3.66,2.7-5.39,4.17-1.52,1.29-2.91,2.74-4.45,4.02-1.53,1.32-3.06,2.6-4.64,3.84-3.33,2.7-6.65,6.04-9.92,8.81-7.46,6.12-14.59,12.6-21.53,19.32-3.65,3.8-8.04,7.98-11.17,12.25-2.23,3.02-4.11,6.56-6.03,9.55-1.39,2.17-2.87,4.27-3.78,6.71-1.12,3.35-2.51,8.08-.42,10.81,2.4,2.48,7.22.86,10-.68l.08-.05h0Z"/>
    <path class="cls-1" d="M262.97,181.47c-1.3-.7-2.45-1.67-3.25-2.91,0,0,0-.01-.01-.02-1.94-2.79-2.54-7.3-6.53-7.31-2.82.13-5.08,2.63-7.08,4.54-1.17,1.16-2.38,2.24-3.77,3.28-3.12,2.26-5.97,5.16-9.46,6.7-1.67.76-3.49,1.18-5.29,1.53-3.2.61-6.53,1.29-9.66.75-6.52-1.1-11.65-6.84-18.46-6.59h-.08,0c-3.07-.04-6.55.16-9.32-1.51-.62-.38-1-.76-1.05-1.11.02-.95,1.28-1.24,2.13-1.37,3.81-.2,8.63.14,11.38-3.13,1.78-2.12,1.83-4.97,2.83-7.54,2.21-4.94,5.14-10.16,10.52-12.17,4.99-2.23,10.43-.56,14.59,2.68,3.5,2.55,3.79,5.65,1.46,8.91-1.8,2.62-4.18,4.96-6.88,6.62-.75.5-1.51.99-2.3,1.42-2.46,1.48-5.62,1.63-8.16,2.7-2.09,1.27,2.02,2.44,3.08,2.52,2.77.38,5.57.16,8.16-.56,2.24-.6,4.34-1.61,6.3-2.89,3.2-2.11,6.41-4.19,8.91-7.07,1.88-2.1,2.42-5.48,4.97-6.79,1.95-.94,4.33-.19,6.44-.1,2.01.2,3.99-.34,5.83-.78,3.01-.84,6.67-.39,7.72,2.87.25.83.22,1.68.1,2.55-.5,3.43,1.38,6.77,4.48,8.31l7.61,3.78c2.3,1.14,4.99,1.14,7.29,0,1.27-.63,2.53-1.29,3.76-2,2.47-1.51,5.2-2.92,7.63-4.29,2.09-1.25,4.05-2.49,6.15-3.92,1.85-1.23,4.13-2.35,6.23-2.26,2.41,0,4.51,1.97,4.7,4.36.39,2.84-1.93,7.2,1.89,8.32,2.08.52,4.37-.22,6.36-.96,2.35-.91,4.35-1.75,6.58-2.74,2.26-.99,4.44-2.23,6.27-3.89,2.68-2.39,5.52-4.57,7.6-7.47,1.06-1.58,1-3.48.84-5.34-1.34-8.43,2.47-14.19,6.48-21.23,1.82-3.41,4.97-7.2.45-9.71-2.42-1.26-5.14-1.84-7.66-2.84-4.28-1.7-8.31-3.83-12.69-5.5-3.84-1.62-7.68-3.13-11.3-5.19-3.46-1.91-6.5-4.27-9.69-6.54-4.7-3.05-9.78-6.2-12.06-11.42-.36-.82-.62-1.7-.66-2.59-.25-6.36,9-7.75,14.26-7.57,2.45.05,3.9.56,6.43.84,2.17.2,5.45.31,8.01.8,2.61.46,4.8,1.2,7.44,1.79,3.77.83,7.86,1.7,11.39,3.28,6.14,2.78,12.42,4.86,18.68,7.21,3.87,1.36,7.04,4.52,11.24,4.87,4.08-.04,6.44-3.87,9.45-6.19,1.99-1.72,4.1-3.63,5.98-5,2.08-1.51,4.3-2.77,6.38-4.32,1.71-1.24,3.15-2.53,4.86-3.66,1.48-.98,3.15-1.5,4.92-2.4,2.6-1.37,5.04-3.1,8.13-3.08,3.06.08,6.92.3,9.45,1.67,5.84,3.47-1.54,14.12-4.57,17.81-1.67,2.25-3.08,4.92-4.76,7.32-1.04,1.51-2.38,2.85-3.45,4.34-3.13,4.35.84,6.04,4.68,6.73,3.79.68,7.57,1.34,11.33,1.76,4.8.36,10.45.95,15.46,1.3,2.83.12,5.55-.39,8.31-.26,1.72.08,3.06.34,4.49.31,1.99-.01,3.91-.81,5.85-1.27,2.22-.55,4.39-.63,7.36-.74,2.77-.07,5.72-.13,8.44-.2,3.34-.08,5.57.22,8.49-.26,1.7-.24,3.44-.49,5.06-1.05,1.29-.43,2.73-.94,4.03-.89.89.03,1.37.38,1.47,1.13.16,3.72-4.34,5.71-7.5,6.54-2.16.66-4.58,1.45-6.95,2.01-6.49,1.63-13.1,1.62-19.71,2.23-6.55.72-13.34,1.3-19.97,1.58-3.32.15-6.48.56-9.81.57-2.97-.01-5.6-.39-8.57-.99-5.7-1.23-11.45-2.36-17.07-3.82-6.31-1.89-9.16.79-12.96,5.29-3.22,3.9-7.85,6.63-11.8,9.63-1.88,1.49-3.68,3.21-5.24,5.01-1.79,2.03-2.84,3.45-5.01,5.1-1.11.84-2.61,1.77-3.89,2.6-2.19,1.36-12.27,8.45-10.02,11.31,1.6,1.81,4.8,1.58,7.21,1.43,2.69-.25,5.11-1.12,7.51-1.96,2.5-1,5.27-2.28,7.85-3.37,1.69-.74,3.78-1.79,5.4-1.94,1.65-.26,3.07.65,1.94,2.31-.68,1.01-1.77,1.88-2.76,2.65-2.32,1.67-4.33,3.51-7.02,5.17-1.34.79-2.77,1.55-4.13,2.29-4.6,2.55-9.88,4.8-15.24,3.76-1.86-.32-3.59-1.12-5.29-1.92-1.84-.89-4.01-1.84-5.92-1.1-2.56,1-4.06,3.66-6.2,5.3-1.62,1.36-3.66,2.3-5.56,3.43-4.43,2.73-9.21,4.82-14.33,6.04-16.28,3.7-12.5-12.07-24.29-5.25-2.24,1.31-4.32,2.92-6.49,4.32-.03.02-.05.03-.08.05-5.01,3.19-11.38,3.32-16.62.51l-9.64-5.17ZM388.75,111.14c2.74.88,5.99,2.66,8.77,2.12,1.9-.37,3.57-1.65,4.98-2.95,3.72-3.3,6.05-7.62,9.13-11.66,1.48-2.1,3.51-4.36,4.4-6.71.71-2.07-.5-3.16-2.51-2.72-1.82.37-3.5,1.4-5.19,2.19-2.16,1.09-4.59,2.07-6.62,3.34-1.63,1-3.08,2.22-4.58,3.41-1.68,1.34-3.47,2.46-5.24,3.68-2.04,1.49-4.23,3.01-5.93,4.88-2.14,2.36.3,3.57,2.69,4.37l.09.03h0ZM365.42,117.16c3.13-4.03-.41-6.03-3.99-7.43-4.36-1.74-8.62-3.63-12.89-5.53-5.55-2.34-11.36-4.68-17.01-6.64-5.25-1.59-10.44-2.44-16-2.5-2.61.01-5.47-.21-8.01.23-2.31.46-3.05,1.94-1.63,3.76,1.17,1.44,2.91,2.48,4.39,3.6,2.91,2.17,5.62,4.66,8.93,6.53,4.1,2.26,8.23,4.75,12.58,6.4,3.55,1.18,7.68,2.9,11.28,4.58,2.47,1.07,5.12,2.27,7.21,3.55,1.93,1.12,4.03,2.61,6.36,2.13,3.13-.71,4.84-3.71,6.8-6.11.65-.83,1.3-1.66,1.91-2.5l.05-.07h0ZM362.53,147.82c2.71-1.34,4.84-3.28,6.85-5.47,1.95-2.01,4.17-4.19,6.31-5.88,2.78-2.1,5.5-4.19,7.98-6.65,1.49-1.41,2.99-2.6,4.47-3.93,1.94-1.6,3.61-4.02.91-5.81-1.1-.72-2.43-1.15-3.66-1.64-2.36-.89-4.36-1.88-6.65-1.74-5.7.32-8.32,6.39-11.22,10.43-2.97,4.02-5.71,7.93-8.4,12.26-1.63,2.54-3.38,5.14-4.58,7.91-.34.83-.61,1.79-.64,2.62-.06,1.15.32,2.36,1.54,2.34.98,0,2.24-1.2,3.6-2.24,1.06-.82,2.23-1.49,3.4-2.14l.08-.05h0ZM220.31,168.55c2.14-1.49,5.63-2.3,6.96-4.48.86-1.62-1.09-2.86-2.51-3.21-2.34-.65-4.8,0-6.65,1.44-2.39,1.79-5.9,5.01-4.27,8.18,1.67,2.18,4.62-.96,6.4-1.87l.09-.06Z"/>
    <path class="cls-1" d="M569.51,158.55c-1.72.31-3.44.46-5.17.51-2.34,0-5.11.25-7.45-.52-2.66-.79-4.13-4.65-5.96-5.7-2.43-1.05-4.92,2.36-6.89,3.55-1.95,1.4-3.61,2.49-5.26,3.89-1.74,1.45-3.26,2.8-5.29,4.04-4.01,2.28-7.77,5.19-11.91,7.27-2.82,1.49-5.56,3.32-8.37,4.92-2.58,1.47-5.11,2.79-7.65,4.24-4.17,2.47-8.64,4.41-13.11,6.25-2.72,1.19-5.47,2.04-8.37,2.73-4.35.92-8.76,2.33-13.24,1.58-6.26-.86-9.4-6.55-6.93-12.35,2.56-6.15,7.3-10.54,12.79-14.07,4.97-3.35,10.4-5.71,15.52-8.88,2.48-1.52,4.86-3.18,7.41-4.36,3.07-1.5,6.43-2.93,9.41-4.62,3.62-2.03,7.23-4.13,10.96-5.99,5.18-2.7,10.76-4.46,15.94-7.16,2.95-1.49,5.72-3.3,8.72-4.41,4.23-1.47,8.21-3.69,12.54-5.1,1.82-.53,3.74-.76,5.52-1.28,4.2-1.29,8.09-4.15,12.43-5.41,2.15-.77,4.19-1.5,5.9-2.86,2.23-1.54,4.85-6.52,7.74-6.56,2.11.38-.04,4.94,2.71,4.99,4.02-.06,7.62-2.66,11.58-3.16,6.36-.95,12.67-2.52,19.09-2.9,1.64-.08,3.04-.1,4.62-.26,2.33-.24,4.77-.83,7.18-.87,4.7-.14,9.26-.62,13.98-.38,3.41.11,6.4.47,9.69.83,2.26.24,4.58.38,6.56.78,2.19.41,4.26,1.07,6.43,1.54,2.34.5,5.02.91,7.25,2.1,3.51,1.79,5.09,5.15,2.26,8.34-1.67,1.94-4.18,3.43-6.27,4.84-3.4,2.18-7.03,4.17-10.48,6.37-4.63,3.13-9.63,5.65-14.53,8.29-4.81,2.79-10.54,3.9-15.53,6.38-4.9,2.29-9.99,3.38-15.14,4.8-5.86,1.38-11.45,2.94-17.39,3.64-1.79.25-3.64.51-5.45.79-1.51.24-4.2.7-4.28,2.43-.18,1.24,1.06,3.44,1.84,4.88,1.01,1.93,1.94,3.89,2.69,5.94,1.81,4.82,2.29,10.29,5.1,14.71,2.77,4.38,7.24,8.23,12.46,9.33,3.57.73,7.42.23,11,.39,3.49.26,6.98-.35,10.38-1.09,3-.61,5.64-1.44,8.56-2.67,3.05-1.21,5.89-1.85,8.88-2.79,2.16-.83,4.18-1.91,6.45-2.56,2.05-.66,4.39-1.21,6.58-1.22,1,0,1.61.14,1.64.44-.01.57-1.65,1.51-2.35,1.93-2.32,1.34-4.85,2.61-7.09,3.8-2.39,1.27-4.94,2.39-7.54,3.51-3.26,1.19-6.57,2.07-9.85,3.1-3.68,1.26-7.59,2.23-11.37,2.96-2.1.37-4.31.6-6.5.7-3.12.09-6.43.38-9.44-.34-2.4-.57-4.47-1.89-6.5-3.24-1.94-1.29-3.8-2.37-5.47-3.85-3.88-3.28-6.03-8.12-7.48-12.95-2.45-7.39-3.17-18.94-12.67-20.31-3.6-.33-7.27.4-10.75,1.05h-.09s0,.03,0,.03ZM610.74,144.69c1.79-.51,3.27-1.36,4.93-2.05,1.83-.77,3.68-.82,5.92-1.28,4.57-1.06,8.48-2.68,12.96-4.46,3.07-.99,6.18-2.5,8.91-4.01,2.79-1.42,5.58-2.84,8.26-4.49,4.92-2.93,10.51-4.79,15.11-8.22,5.64-3.84,4.76-6.14-2.01-6.74-4.03-.27-7.57-.5-11.53-.61-4.86,0-9.56-.67-14.42-.56-4.11.11-8.25.77-12.29,1.22-4.84.58-9.75,1.03-14.6,1.72-3.54.46-6.89,1.46-10.33,2.31-5.47,1.26-11.12,2.21-16.7,2.68-4.02.16-5.85,2.17-8.75,5.15-2.94,2.84-4.66,5.51-7.73,8.59-1.8,1.79-3.86,3.53-5.65,5.37-7.93,8.14,1.82,5.77,7.07,7.27,6.57,1.68,7.7,3.95,15.24,2.69,2.45-.39,4.88-.36,7.28-.88,2.31-.49,4.19-1.18,6.53-1.57,3.82-.67,7.97-1.06,11.7-2.11l.09-.03h0ZM469.3,185.13c.82.88,2.74,1,4.28.84,2.41-.2,4.87-.57,7.31-.98,6.63-1.17,12.86-3.77,18.95-6.51,2.18-1.12,4.21-2.58,6.52-3.41,2.36-.92,4.69-1.67,6.89-3.05,1.91-1.17,3.92-2.35,5.83-3.33,3.31-1.57,5.95-3.45,8.85-5.66,3.31-2.1,6.32-4.7,9.52-6.99,2.54-1.64,4.73-2.84,6.74-4.91,2.09-2.15,4.7-3.68,6.92-5.58,1.01-.9,1.86-1.82,2.91-2.8,2.22-2.05,4.7-3.85,6.76-6.07,1.81-2.19,8.14-7.28,6.97-10-.23-.32-.76-.32-1.45-.1-.69.22-1.52.66-2.41,1.1-3.4,1.73-7.28,3.07-10.79,4.58-2.77,1.11-5.5,2.56-8.28,3.71-1.95.8-3.96,1.29-5.74,2.38-1.35.82-2.65,1.72-4.08,2.39-1.59.77-3.19,1.09-4.97,2.06-2.16,1.21-4.75,2.35-6.97,3.39-4.66,2.25-9.45,4.08-14.07,6.5-2.69,1.42-5.24,3.17-7.88,4.64-2.34,1.3-4.75,2.55-7.06,4.01-4.57,3.02-9.69,5.17-14.08,8.45-3.41,2.44-7.03,4.86-9.49,8.31-1.32,1.99-3.01,4.9-1.21,7.01l.05.04h0ZM569.65,152.08c-.99-1-5.69-.54-7.2-.29-1.31.18-3.21,1.47-.52,1.72,1.26.02,7.86,0,7.74-1.39v-.03s-.01,0-.01,0Z"/>
    <path class="cls-1" d="M935.25,161.11c2.59.2,5.97.79,7.57,2.79.61.74.75,2.18-.39,2.46-1.87.3-3.64-.48-5.65-.35-2.19.14-4.32,1-6.5,1.34-4.24.8-8.45,1.37-12.69,2.37-3.6.78-7.35,1.23-10.89,2.07-4.4,1.2-8.92,1.62-13.64,2.12-1.95.22-3.91.5-5.81.95-3.57.88-6.31,2.23-9.68,2.96-5.21,1.04-12.23,3.8-16.92.25-1.32-1.01-2.65-2.43-4-3.8-1.56-1.57-3.23-3.29-5.62-2.98-1.95.2-4.13,1.25-6.02,2.11-3.09,1.4-5.89,3.04-8.98,4.44-4.8,2.23-10.12,2.29-15.22,3.4-6.27,1.23-13,1.46-17.42-3.87-1.34-1.49-2.11-3.62-3.98-4.62-3.07-1.52-6.13.93-9.06,2.39-4.03,2.46-8.91,1.77-13.29,3.07-2.57.73-5.42,1.34-7.76-.34-3.82-2.3-4.63-8.28-9.99-7.9-4.01.34-7.81,2.12-11.18,4.23-4.32,2.85-9.45,5.88-14.79,5.35-6.07-.74-7.7-10.33-11.67-9.7-.78.09-1.57.42-2.29.78-1.95,1.01-4.41,2.43-6.66,3.24-3.26,1.23-6.68,1.9-9.81,3.4-3.93,2.03-8.08,3.12-12.51,3.82-3.01.54-6.01,1.26-9.01.82-1.83-.24-3.61-.85-5.43-1.08-1.44-.2-3.01-.13-4.13-.16-.81-.03-1.34-.18-1.54-.54-.12-.25-.12-.53-.06-.82.18-.95,1.04-2.57,1.61-4.16,1.2-3.85,1.67-8.05,4.46-11.22,2.16-2.87,5.3-4.36,8.14-6.36,4.21-3.02,8.73-5.64,13.69-7.41,3.51-1.23,7.54-1.84,11.17-.62,3.43.97,5.95,1.67,8.89,3.67.99.76,1.9,1.6,2.85,2.43,2.45,2.33,5.07,4.67,8.46,2.23,2.53-1.53,4.4-4.64,7.24-5.58,1.92-.69,4.37.25,5.75,1.71,1.38,1.35,1.09,3.31.05,4.8-1.28,1.79-2.89,3.44-4.4,5.06-1.48,1.58-3.23,3.04-3.95,5.07-.61,2,2.55,2.11,3.97,1.84,2.73-.39,5.32-1.67,7.78-3.01,1.83-.92,3.59-1.3,5.57-1.42,2.77-.12,4.82-.21,6.54-2.63,1.08-1.4,2.06-2.51,3.89-3.17,2.01-.74,4.04-1.65,5.79-3.09,1.67-1.25,3.5-3.03,5.65-3,3.13.1,5.52,3.69,3.99,6.49-.73,1.6-2.47,3.06-3.34,4.77-1.8,3.64.36,5.38,3.94,4.76,2.6-.42,5.01-1.72,7.62-2.11,4.72-.89,9.22-2.9,13.34-5.36,1.81-1.04,3.62-2.51,5.7-2.18,1.91.25,3.96,2.24,4.55,4.57.4,1.5.3,3.11.42,4.64.23,6.99,8.68,4.7,13.08,3.35,2.93-.94,5.98-1.71,8.76-2.99,2.8-1.26,5.82-2.57,8.87-3.3,4.12-1.21,7.82-3.68,11.83-5.05,1.63-.61,3.27-1.21,4.79-2.12,1.94-1.2,4.1-2.42,6.33-2.63,3.13-.42,6.28,2.31,6.05,5.49-.03,1.8-.85,3.32-.38,4.64,1.95,3.12,10.3-.65,13.5-.88,3.06-.5,5.89-.42,8.89-1.04,3.35-.76,6.83-1.52,10.16-2.11,2.74-.62,5.43-1.37,8-1.81,4.08-.38,7.98-.34,12.14-.99,4.59-.67,9.02.05,13.56.5h.09ZM691.25,174.37c2.55-.43,5.32-.8,7.57-1.62,2.15-.75,4.07-1.95,6.14-2.9,4.66-2.01,8.73-3.4,13.21-5.66,7.03-3.65.46-7.82-4.29-8.75-1.58-.32-3.26-.24-4.87-.08-2.18.24-4.46.4-6.46,1.03-2.17.68-4.18,1.74-6.29,2.57-3.15,1.19-6.49,2.35-9.14,4.53-1.97,1.62-2.89,3.85-2.91,6.3-.03,1.31-.02,2.96.73,3.95,1.45,1.57,3.47.98,6.2.64l.11-.02h0Z"/>
    <path class="cls-1" d="M311.78,149.92c-4.52.64-3.45-7.9-2.71-10.65.47-1.4,1.42-2.53,2.13-3.8.74-1.19,1.99-3.55,3.37-2.25,1.1.93,2.18,3.55,2.3,5.3.18,1.8-.36,3.52-.83,5.3-.68,2.34-1.58,5.58-4.19,6.09h-.08Z"/>
    <path class="cls-1" d="M128.87,155.01c-.05.25-.46.26-.46-.04s.41-.28.46-.04v.07h0Z"/>
  </g>
</svg>