<?xml version="1.0" encoding="UTF-8"?>
<svg id="Layer_2" data-name="Layer 2" xmlns="http://www.w3.org/2000/svg" viewBox="0 0 226.41 118.93">
  <defs>
    <style>
      .cls-1 {
        fill: #fff;
      }

      .cls-2 {
        fill: #eb5b25;
      }
    </style>
  </defs>
  <g id="Layer_1-2" data-name="Layer 1">
    <g>
      <rect class="cls-1" width="226.41" height="118.93"/>
      <path class="cls-2" d="M194.68.41h-47.01c-13.07,0-22.94,8.19-27.8,19.95C116.51,12.29,105.19-.17,75.78.49c0,0-27.29-.08-36.38,0C27.45.59,6.4,2.95,1.81,34.67c-3.31,22.88-.48,27.23,4.02,30.6,3.04,2.27,6.75,1.94,8.8,1.09,4.49-1.86,10.99-4.13,21.03-6.67,2.7-.68,12.27-1.85,17.91-6.92,1.52-1.44,2.93-3.24,4.19-4.46,1.92-1.81,4.1-3.69,6.48-4.45,2.92-.85,6.61.18,8.32,3.01,2.08,3.71-.73,7.21-4.12,9.05-1.51.84-3.16,1.54-4.86,2.12-3.46,1.18-7.05,1.86-10.68,2.09-8.95.57-34.97,3.26-47.06,15.51-1.25,1.27-5.22,4.18-4.98,14.95,0,0,0,13.19,3.17,19.34,1.86,3.61,5.17,6.7,10.52,7.9,3.33.74,13.61,1.1,18.98.91l64.49.14s17.18.8,21.86-17.04c5.4,10.2,15.83,17.11,27.8,17.11h47.01c17.52,0,31.73-14.79,31.73-33.03v-52.47c0-18.24-14.21-33.03-31.73-33.03ZM44.48,89.26s16.28-12.24,42.43-17.58c23.45-4.78,30.12-17.69,30.12-17.69l-.18,21.85c-5.39-15.13-72.38,13.42-72.38,13.42ZM170.09,65.05c0,3.24-2.52,5.87-5.63,5.87h-.15c-3.11,0-5.63-2.63-5.63-5.87v-8.97c0-3.24,2.52-5.87,5.63-5.87h.15c3.11,0,5.63,2.63,5.63,5.87v8.97Z"/>
      <g>
        <path class="cls-1" d="M207.8,76.22v-21.97h-4.76v22.1c0,5.09-.63,7.84-2.24,9.82-2.14,2.65-5.56,3.99-10.16,3.99-5.74,0-10.09-2.56-11.64-6.85-.56-1.56-.75-3.53-.75-7.8v-21.26h-4.76v21.91c0,4.57.21,6.64.92,8.89,1.93,5.99,7.85,9.43,16.24,9.43,4.82,0,9.31-1.49,12.32-4.1,3.58-3.04,4.84-6.75,4.84-14.16M150.74,93.57h4.7l-1.45-39.58h-3.3l-11.53,25.04-2.83,6.66s-.3.74-.55,1.37c-.27-.66-.55-1.37-.55-1.37,0,0-2.31-5.28-2.31-5.28l-.98-2.16-11.44-24.26h-3.47l-1.61,39.58h4.49l.96-28.19s.09,0,.09,0c.72,1.71,2.56,6.05,2.56,6.05l10.41,22.14h3.2l10.35-22.27,2.53-6.07.09-.02c.16,6.94.64,28.36.64,28.36M97.23,76.22v-21.97h-4.76v22.1c0,5.09-.63,7.84-2.24,9.82-2.14,2.65-5.56,3.99-10.16,3.99-5.73,0-10.09-2.56-11.64-6.85-.56-1.56-.75-3.53-.75-7.8v-21.27h-4.76v21.91c0,4.57.22,6.64.92,8.89,1.93,5.99,7.85,9.43,16.23,9.43,4.83,0,9.32-1.49,12.32-4.1,3.58-3.04,4.84-6.75,4.84-14.16M49.36,93.57s-17.9-21.12-18.33-21.64c.44-.45,15.49-15.63,17.54-17.71h-6.08c-3.34,3.39-17.68,17.98-18.76,19.08h0s0-19.07,0-19.07h-4.76v39.34h4.77v-14.61c.19-.2,3.41-3.52,3.92-4.04.52.64,15.68,18.64,15.68,18.64h6.02Z"/>
        <path class="cls-1" d="M207.65,35.64l-.97-8.27h-.75l-3.07,6.71-3.1-6.71h-.74l-1.01,8.27h1.01l.67-5.96,2.77,5.96h.67l2.81-6.09.63,6.09h1.1ZM193.83,35.03c.79-.69.93-1.69.93-2.7v-4.97h-1.1v5.02c0,1.59-.53,2.47-2.2,2.47s-2.38-.77-2.38-2.47v-5.02h-1.09v4.97c0,.92.05,1.83.68,2.55.66.74,1.73.95,2.67.95.87,0,1.83-.2,2.49-.79M181.29,34.69v-2.95h3.05v-.91h-3.05v-2.56h3.32v-.91h-4.42v8.27h4.84l.15-.95h-3.89ZM173.05,29.37c0-.76.59-1.24,1.32-1.24.68,0,1.21.34,1.71.77l.45-.93c-.58-.53-1.31-.79-2.09-.79-1.36,0-2.44.95-2.44,2.34,0,2.7,3.72,2.13,3.72,3.96,0,.86-.64,1.4-1.47,1.4-.89,0-1.66-.45-2.28-1.06l-.22,1.15c.73.54,1.47.86,2.39.86,1.46,0,2.71-.92,2.71-2.46,0-2.72-3.79-2.17-3.79-4M167.66,35.03c.79-.69.93-1.69.93-2.7v-4.97h-1.1v5.02c0,1.59-.53,2.47-2.2,2.47s-2.38-.77-2.38-2.47v-5.02h-1.1v4.97c0,.92.05,1.83.68,2.55.66.74,1.72.95,2.67.95.87,0,1.83-.2,2.49-.79M157.17,35.03c.79-.69.93-1.69.93-2.7v-4.97h-1.09v5.02c0,1.59-.53,2.47-2.2,2.47s-2.38-.77-2.38-2.47v-5.02h-1.1v4.97c0,.92.05,1.83.68,2.55.66.74,1.73.95,2.67.95.87,0,1.83-.2,2.49-.79M146.94,35.64h1.1l-.97-8.27h-.75l-3.07,6.71-3.1-6.71h-.74l-1.01,8.27h1.01l.67-5.96,2.77,5.96h.67l2.81-6.09.63,6.09ZM133.69,35.64h1.1v-8.27h-1.1v8.27ZM128.16,28.27h2.85v-.91h-6.79v.91h2.85v7.36h1.09v-7.36ZM118.2,29.37c0-.76.59-1.24,1.32-1.24.68,0,1.21.34,1.71.77l.45-.93c-.58-.53-1.31-.79-2.09-.79-1.36,0-2.44.95-2.44,2.34,0,2.7,3.72,2.13,3.72,3.96,0,.86-.64,1.4-1.47,1.4-.89,0-1.66-.45-2.28-1.06l-.23,1.15c.73.54,1.47.86,2.39.86,1.46,0,2.71-.92,2.71-2.46,0-2.72-3.79-2.17-3.79-4M113.06,35.75l.55-.2v-8.19h-1.01v6.24l-5.5-6.37-.62.21v8.18h1.01v-6.33l5.57,6.45ZM101.81,35.03c.79-.69.93-1.69.93-2.7v-4.97h-1.09v5.02c0,1.59-.53,2.47-2.2,2.47s-2.38-.77-2.38-2.47v-5.02h-1.09v4.97c0,.92.05,1.83.68,2.55.65.74,1.73.95,2.67.95.87,0,1.83-.2,2.49-.79M93.1,35.64l-3.63-4.5,3.49-3.64-1.11-.25-3.98,4.16v-4.04h-1.11v8.27h1.11v-3l.81-.83,3.02,3.83h1.4ZM75.2,35.64h1.1v-8.27h-1.1v8.27ZM69.67,28.27h2.85v-.91h-6.79v.91h2.85v7.36h1.1v-7.36ZM59.71,29.37c0-.76.59-1.24,1.32-1.24.68,0,1.21.34,1.71.77l.45-.93c-.58-.53-1.31-.79-2.09-.79-1.36,0-2.44.95-2.44,2.34,0,2.7,3.72,2.13,3.72,3.96,0,.86-.64,1.4-1.47,1.4-.89,0-1.66-.45-2.28-1.06l-.23,1.15c.73.54,1.47.86,2.39.86,1.46,0,2.71-.92,2.71-2.46,0-2.72-3.79-2.17-3.79-4M51.85,34.69v-2.95h3.05v-.91h-3.05v-2.56h3.32v-.91h-4.42v8.27h4.83l.15-.95h-3.89ZM43.83,34.69v-2.95h3.05v-.91h-3.05v-2.56h3.32v-.91h-4.42v8.27h4.83l.15-.95h-3.89Z"/>
        <rect class="cls-1" x="24.82" y="30.69" width="1.59" height="4.5"/>
        <polygon class="cls-1" points="23.5 30.69 23.5 36.52 32.22 36.52 32.22 38.11 21.91 38.11 21.91 30.69 23.5 30.69"/>
        <polygon class="cls-1" points="29.31 27.78 29.31 32.29 27.72 32.29 27.72 29.38 21.91 29.38 21.91 27.78 29.31 27.78"/>
        <polygon class="cls-1" points="32.22 24.87 32.22 35.2 27.72 35.2 27.72 33.6 30.63 33.6 30.63 24.87 32.22 24.87"/>
        <path class="cls-1" d="M29.28,24.87v1.59c-.28,0-8.72,0-8.72,0v11.64h-1.59v-13.24h10.31Z"/>
      </g>
    </g>
  </g>
</svg>