<?xml version="1.0" encoding="UTF-8"?>
<svg id="Layer_2" data-name="Layer 2" xmlns="http://www.w3.org/2000/svg" viewBox="0 0 226.77 140.58">
  <defs>
    <style>
      .cls-1 {
        fill: #fff;
      }

      .cls-2 {
        fill: #2b2523;
      }

      .cls-3 {
        fill: #eb5b25;
      }
    </style>
  </defs>
  <g id="Layer_1-2" data-name="Layer 1">
    <rect class="cls-1" width="226.77" height="140.58"/>
    <rect class="cls-1" x="8.42" y="4.12" width="102.42" height="63.49"/>
    <rect class="cls-1" x="115.93" y="4.24" width="102.42" height="63.49"/>
    <rect class="cls-2" x="7.02" y="72.33" width="105.22" height="65.36"/>
    <rect class="cls-3" x="113.98" y="72.33" width="106.49" height="65.36"/>
    <g>
      <path class="cls-1" d="M203.86,73.65h-21.23c-5.9,0-10.36,3.7-12.55,9.01-1.52-3.65-6.63-9.27-19.91-8.97,0,0-12.32-.03-16.43,0-5.4.04-14.9,1.11-16.98,15.44-1.5,10.33-.22,12.3,1.82,13.82,1.37,1.03,3.05.88,3.97.49,2.03-.84,4.96-1.87,9.5-3.01,1.22-.31,5.54-.84,8.09-3.13.69-.65,1.32-1.47,1.89-2.02.87-.82,1.85-1.67,2.93-2.01,1.32-.38,2.99.08,3.76,1.36.94,1.67-.33,3.26-1.86,4.09-.68.38-1.43.69-2.19.96-1.56.53-3.19.84-4.83.95-4.04.26-15.79,1.47-21.25,7-.56.57-2.36,1.89-2.25,6.75,0,0,0,5.96,1.43,8.74.84,1.63,2.34,3.03,4.75,3.57,1.5.34,6.15.49,8.57.41l29.12.06s7.76.36,9.87-7.7c2.44,4.61,7.15,7.73,12.56,7.73h21.23c7.91,0,14.33-6.68,14.33-14.92v-23.7c0-8.24-6.42-14.92-14.33-14.92ZM136.02,113.77s7.35-5.53,19.16-7.94c10.59-2.16,13.62-8.01,13.62-8.01l-.09,9.89c-2.44-6.83-32.69,6.06-32.69,6.06ZM192.75,102.84c0,1.46-1.14,2.65-2.54,2.65h-.07c-1.4,0-2.54-1.19-2.54-2.65v-4.05c0-1.46,1.14-2.65,2.54-2.65h.07c1.4,0,2.54,1.19,2.54,2.65v4.05Z"/>
      <g>
        <path class="cls-3" d="M210.11,107.94v-10h-2.17v10.06c0,2.31-.29,3.57-1.02,4.47-.98,1.21-2.53,1.82-4.62,1.82-2.61,0-4.59-1.17-5.3-3.12-.26-.71-.34-1.61-.34-3.55v-9.68h-2.17v9.97c0,2.08.1,3.02.42,4.05.88,2.73,3.57,4.29,7.39,4.29,2.19,0,4.24-.68,5.6-1.86,1.63-1.38,2.2-3.07,2.2-6.44M184.14,115.84h2.14l-.66-18.01h-1.5l-5.25,11.39-1.29,3.03s-.14.33-.25.62c-.12-.3-.25-.62-.25-.62,0,0-1.05-2.4-1.05-2.4l-.45-.98-5.21-11.04h-1.58l-.73,18.01h2.04l.44-12.83s.04,0,.04,0c.33.78,1.17,2.75,1.17,2.75l4.74,10.07h1.46l4.71-10.13,1.15-2.76h.04c.07,3.15.29,12.89.29,12.89M159.79,107.94v-10h-2.17v10.06c0,2.31-.29,3.57-1.02,4.47-.97,1.21-2.53,1.82-4.62,1.82-2.61,0-4.59-1.17-5.3-3.12-.25-.71-.34-1.61-.34-3.55v-9.68h-2.17v9.97c0,2.08.1,3.02.42,4.05.88,2.73,3.57,4.29,7.39,4.29,2.2,0,4.24-.68,5.6-1.86,1.63-1.38,2.2-3.07,2.2-6.44M138.01,115.84s-8.14-9.61-8.34-9.85c.2-.2,7.05-7.11,7.98-8.06h-2.77c-1.52,1.54-8.04,8.18-8.54,8.68h0s0-8.68,0-8.68h-2.17v17.9h2.17v-6.65c.09-.09,1.55-1.6,1.78-1.84.24.29,7.14,8.48,7.14,8.48h2.74Z"/>
        <path class="cls-3" d="M210.04,89.47l-.44-3.76h-.34l-1.4,3.05-1.41-3.05h-.34l-.46,3.76h.46l.3-2.71,1.26,2.71h.3l1.28-2.77.29,2.77h.5ZM203.75,89.2c.36-.32.42-.77.42-1.23v-2.26h-.5v2.28c0,.72-.24,1.12-1,1.12s-1.08-.35-1.08-1.12v-2.28h-.5v2.26c0,.42.02.83.31,1.16.3.34.79.43,1.21.43.4,0,.83-.09,1.13-.36M198.04,89.04v-1.34h1.39v-.41h-1.39v-1.16h1.51v-.41h-2.01v3.76h2.2l.07-.43h-1.77ZM194.3,86.62c0-.34.27-.56.6-.56.31,0,.55.16.78.35l.21-.42c-.26-.24-.6-.36-.95-.36-.62,0-1.11.43-1.11,1.07,0,1.23,1.69.97,1.69,1.8,0,.39-.29.64-.67.64-.41,0-.76-.21-1.04-.48l-.1.52c.33.25.67.39,1.09.39.66,0,1.23-.42,1.23-1.12,0-1.24-1.72-.99-1.72-1.82M191.84,89.2c.36-.32.42-.77.42-1.23v-2.26h-.5v2.28c0,.72-.24,1.12-1,1.12s-1.08-.35-1.08-1.12v-2.28h-.5v2.26c0,.42.02.83.31,1.16.3.34.78.43,1.21.43.4,0,.83-.09,1.13-.36M187.07,89.2c.36-.32.42-.77.42-1.23v-2.26h-.5v2.28c0,.72-.24,1.12-1,1.12s-1.08-.35-1.08-1.12v-2.28h-.5v2.26c0,.42.02.83.31,1.16.3.34.79.43,1.21.43.4,0,.83-.09,1.13-.36M182.41,89.47h.5l-.44-3.76h-.34l-1.4,3.05-1.41-3.05h-.34l-.46,3.76h.46l.3-2.71,1.26,2.71h.3l1.28-2.77.29,2.77ZM176.38,89.47h.5v-3.76h-.5v3.76ZM173.87,86.12h1.3v-.41h-3.09v.41h1.3v3.35h.5v-3.35ZM169.33,86.62c0-.34.27-.56.6-.56.31,0,.55.16.78.35l.21-.42c-.26-.24-.6-.36-.95-.36-.62,0-1.11.43-1.11,1.07,0,1.23,1.69.97,1.69,1.8,0,.39-.29.64-.67.64-.41,0-.76-.21-1.04-.48l-.1.52c.33.25.67.39,1.09.39.66,0,1.23-.42,1.23-1.12,0-1.24-1.72-.99-1.72-1.82M167,89.52l.25-.09v-3.72h-.46v2.84l-2.5-2.9-.28.1v3.72h.46v-2.88l2.53,2.93ZM161.88,89.2c.36-.32.42-.77.42-1.23v-2.26h-.5v2.28c0,.72-.24,1.12-1,1.12s-1.08-.35-1.08-1.12v-2.28h-.5v2.26c0,.42.02.83.31,1.16.3.34.79.43,1.21.43.4,0,.83-.09,1.13-.36M157.91,89.47l-1.65-2.05,1.59-1.66-.5-.12-1.81,1.89v-1.84h-.5v3.76h.5v-1.37l.37-.38,1.38,1.74h.64ZM149.76,89.47h.5v-3.76h-.5v3.76ZM147.25,86.12h1.29v-.41h-3.09v.41h1.3v3.35h.5v-3.35ZM142.72,86.62c0-.34.27-.56.6-.56.31,0,.55.16.78.35l.21-.42c-.26-.24-.6-.36-.95-.36-.62,0-1.11.43-1.11,1.07,0,1.23,1.69.97,1.69,1.8,0,.39-.29.64-.67.64-.41,0-.76-.21-1.04-.48l-.1.52c.33.25.67.39,1.09.39.66,0,1.23-.42,1.23-1.12,0-1.24-1.72-.99-1.72-1.82M139.14,89.04v-1.34h1.39v-.41h-1.39v-1.16h1.51v-.41h-2.01v3.76h2.2l.07-.43h-1.77ZM135.49,89.04v-1.34h1.39v-.41h-1.39v-1.16h1.51v-.41h-2.01v3.76h2.2l.07-.43h-1.77Z"/>
        <rect class="cls-3" x="126.84" y="87.22" width=".72" height="2.05"/>
        <polygon class="cls-3" points="126.24 87.22 126.24 89.87 130.21 89.87 130.21 90.6 125.51 90.6 125.51 87.22 126.24 87.22"/>
        <polygon class="cls-3" points="128.88 85.9 128.88 87.95 128.16 87.95 128.16 86.63 125.51 86.63 125.51 85.9 128.88 85.9"/>
        <polygon class="cls-3" points="130.21 84.57 130.21 89.27 128.16 89.27 128.16 88.55 129.48 88.55 129.48 84.57 130.21 84.57"/>
        <path class="cls-3" d="M128.87,84.57v.73c-.13,0-3.97,0-3.97,0v5.3h-.72v-6.02h4.69Z"/>
      </g>
      <g>
        <g>
          <path class="cls-1" d="M158.63,131.05v3.35h-.5v-3.35h-1.29v-.42h3.08v.42h-1.28Z"/>
          <path class="cls-1" d="M164.46,132.52c0,.29-.05.55-.14.79-.09.24-.22.45-.39.62-.17.17-.37.31-.61.4-.24.1-.5.14-.8.14s-.54-.05-.77-.15c-.23-.1-.44-.24-.6-.42-.17-.18-.3-.39-.39-.62-.09-.24-.14-.5-.14-.78s.05-.55.15-.79c.1-.24.23-.44.41-.62.18-.17.38-.31.62-.4.24-.1.5-.14.79-.14s.53.05.77.15c.23.1.43.24.59.42.16.18.29.38.38.62.09.24.14.49.14.76ZM163.93,132.57c0-.2-.03-.4-.1-.59-.06-.19-.16-.36-.28-.5-.12-.15-.27-.26-.44-.35-.18-.09-.38-.13-.6-.13-.21,0-.4.04-.57.11s-.31.17-.43.3c-.12.13-.21.28-.27.46-.06.18-.09.37-.09.57,0,.21.03.42.1.61.07.19.16.36.29.51.12.15.28.26.46.34.18.08.38.13.61.13.21,0,.4-.04.57-.12.17-.08.31-.18.42-.31.11-.13.2-.29.26-.46.06-.18.09-.37.09-.57Z"/>
          <path class="cls-1" d="M169.27,132.52c0,.29-.05.55-.14.79-.09.24-.22.45-.39.62-.17.17-.37.31-.61.4-.24.1-.5.14-.8.14s-.54-.05-.77-.15c-.23-.1-.44-.24-.6-.42-.17-.18-.3-.39-.39-.62-.09-.24-.14-.5-.14-.78s.05-.55.15-.79c.1-.24.23-.44.41-.62.18-.17.38-.31.62-.4.24-.1.5-.14.79-.14s.53.05.77.15c.23.1.43.24.59.42.16.18.29.38.38.62.09.24.14.49.14.76ZM168.74,132.57c0-.2-.03-.4-.1-.59-.06-.19-.16-.36-.28-.5-.12-.15-.27-.26-.44-.35-.18-.09-.38-.13-.6-.13-.21,0-.4.04-.57.11s-.31.17-.43.3c-.12.13-.21.28-.27.46-.06.18-.09.37-.09.57,0,.21.03.42.1.61.07.19.16.36.29.51.12.15.28.26.46.34.18.08.38.13.61.13.21,0,.4-.04.57-.12.17-.08.31-.18.42-.31.11-.13.2-.29.26-.46s.09-.37.09-.57Z"/>
          <path class="cls-1" d="M172.81,133.35c0,.21-.04.38-.13.52-.09.14-.2.25-.34.33-.14.08-.3.14-.47.18-.18.04-.35.05-.53.05-.16,0-.32,0-.48-.02-.16-.01-.32-.03-.47-.05v-3.73c.14-.02.29-.03.44-.04.15,0,.29-.01.44-.01.15,0,.31.02.46.05.15.03.29.08.41.16.12.07.22.17.3.29.08.12.11.27.11.46,0,.12-.02.23-.06.32-.04.09-.09.17-.14.24-.06.07-.12.12-.18.17-.06.04-.12.08-.18.1.25.06.45.18.6.34.15.16.22.37.22.64ZM172.04,131.58c0-.11-.02-.21-.06-.29-.04-.08-.1-.14-.18-.2-.07-.05-.16-.09-.25-.11-.09-.02-.19-.03-.29-.03-.13,0-.26,0-.39.02v1.3h.54c.11,0,.2-.02.28-.06.08-.04.15-.09.2-.15s.1-.13.12-.22c.03-.08.04-.17.04-.27ZM172.29,133.36c0-.13-.02-.24-.07-.34-.05-.09-.11-.17-.2-.23-.08-.06-.18-.1-.29-.13-.11-.03-.23-.04-.36-.04h-.51v1.4c.17.02.34.03.5.03.12,0,.23-.01.34-.03.11-.02.21-.06.3-.11.08-.05.15-.13.21-.22.05-.09.08-.2.08-.34Z"/>
          <path class="cls-1" d="M178.64,134.4l-1.4-1.75-.37.4v1.36h-.5v-3.77h.5v1.84l1.8-1.89.52.1-1.59,1.66,1.66,2.06h-.62Z"/>
          <path class="cls-1" d="M183.72,132.52c0,.29-.05.55-.14.79-.09.24-.22.45-.39.62-.17.17-.37.31-.61.4s-.5.14-.8.14-.54-.05-.77-.15c-.23-.1-.44-.24-.6-.42-.17-.18-.3-.39-.39-.62-.09-.24-.14-.5-.14-.78s.05-.55.15-.79c.1-.24.23-.44.41-.62.18-.17.38-.31.62-.4.24-.1.5-.14.79-.14s.53.05.77.15c.23.1.43.24.59.42.16.18.29.38.38.62.09.24.14.49.14.76ZM183.19,132.57c0-.2-.03-.4-.1-.59-.06-.19-.16-.36-.28-.5-.12-.15-.27-.26-.44-.35-.18-.09-.38-.13-.6-.13-.21,0-.4.04-.57.11s-.31.17-.43.3c-.12.13-.21.28-.27.46-.06.18-.09.37-.09.57,0,.21.03.42.1.61.07.19.16.36.29.51.12.15.28.26.46.34.18.08.38.13.61.13.21,0,.4-.04.57-.12.17-.08.31-.18.42-.31.11-.13.2-.29.26-.46s.09-.37.09-.57Z"/>
          <path class="cls-1" d="M187.22,134.4l-1.4-1.75-.37.4v1.36h-.5v-3.77h.5v1.84l1.8-1.89.52.1-1.59,1.66,1.66,2.06h-.62Z"/>
          <path class="cls-1" d="M191.28,134.4l-1.4-1.75-.37.4v1.36h-.5v-3.77h.5v1.84l1.8-1.89.52.1-1.59,1.66,1.66,2.06h-.62Z"/>
          <path class="cls-1" d="M196.11,132.89c0,.11,0,.23-.01.34,0,.11-.03.22-.06.33-.03.11-.07.21-.12.3-.05.09-.12.18-.21.26-.15.14-.33.24-.53.29s-.4.08-.6.08c-.13,0-.26,0-.39-.03-.13-.02-.25-.05-.36-.09-.11-.04-.22-.1-.32-.17-.1-.07-.18-.16-.25-.26-.05-.07-.09-.15-.12-.24-.03-.09-.05-.18-.07-.27s-.03-.19-.03-.28c0-.09,0-.18,0-.27v-2.25h.5v2.25c0,.19.02.36.05.52.03.15.1.28.22.39.1.09.21.16.34.2.13.04.28.07.45.07s.32-.02.46-.07c.14-.05.25-.12.34-.22.09-.1.16-.23.19-.39.03-.16.05-.32.05-.5v-2.25h.5v2.26Z"/>
          <path class="cls-1" d="M198.34,134.16c0,.09-.03.16-.09.22-.06.05-.13.08-.22.08s-.16-.03-.21-.08-.08-.13-.08-.21c0-.09.03-.17.08-.23.05-.06.13-.08.22-.08s.17.03.23.08.08.13.08.23ZM198.19,133.49h-.34l-.11-2.86h.55l-.1,2.86Z"/>
        </g>
        <path class="cls-1" d="M153.9,132.75v-2.09h-.45v2.1c0,.48-.06.75-.21.93-.2.25-.53.38-.97.38-.55,0-.96-.24-1.11-.65-.05-.15-.07-.34-.07-.74v-2.02h-.45v2.08c0,.43.02.63.09.85.18.57.75.9,1.54.9.46,0,.89-.14,1.17-.39.34-.29.46-.64.46-1.35M148.47,134.4h.45l-.14-3.76h-.31l-1.1,2.38-.27.63s-.03.07-.05.13c-.03-.06-.05-.13-.05-.13,0,0-.22-.5-.22-.5l-.09-.2-1.09-2.31h-.33l-.15,3.76h.43l.09-2.68s0,0,0,0c.07.16.24.58.24.58l.99,2.1h.3l.98-2.12.24-.58h0c.02.66.06,2.69.06,2.69M143.38,132.75v-2.09h-.45v2.1c0,.48-.06.75-.21.93-.2.25-.53.38-.97.38-.55,0-.96-.24-1.11-.65-.05-.15-.07-.34-.07-.74v-2.02h-.45v2.08c0,.43.02.63.09.85.18.57.75.9,1.54.9.46,0,.89-.14,1.17-.39.34-.29.46-.64.46-1.35M138.83,134.4s-1.7-2.01-1.74-2.06c.04-.04,1.47-1.49,1.67-1.68h-.58c-.32.32-1.68,1.71-1.78,1.81h0s0-1.81,0-1.81h-.45v3.74h.45v-1.39s.32-.33.37-.38c.05.06,1.49,1.77,1.49,1.77h.57Z"/>
      </g>
    </g>
    <g>
      <path class="cls-3" d="M203.86,4.14h-21.23c-5.9,0-10.36,3.7-12.55,9.01-1.52-3.65-6.63-9.27-19.91-8.97,0,0-12.32-.03-16.43,0-5.4.04-14.9,1.11-16.98,15.44-1.5,10.33-.22,12.3,1.82,13.82,1.37,1.03,3.05.88,3.97.49,2.03-.84,4.96-1.87,9.5-3.01,1.22-.31,5.54-.84,8.09-3.13.69-.65,1.32-1.47,1.89-2.02.87-.82,1.85-1.67,2.93-2.01,1.32-.38,2.99.08,3.76,1.36.94,1.67-.33,3.26-1.86,4.09-.68.38-1.43.69-2.19.96-1.56.53-3.19.84-4.83.95-4.04.26-15.79,1.47-21.25,7-.56.57-2.36,1.89-2.25,6.75,0,0,0,5.96,1.43,8.74.84,1.63,2.34,3.03,4.75,3.57,1.5.34,6.15.49,8.57.41l29.12.06s7.76.36,9.87-7.7c2.44,4.61,7.15,7.73,12.56,7.73h21.23c7.91,0,14.33-6.68,14.33-14.92v-23.7c0-8.24-6.42-14.92-14.33-14.92ZM136.02,44.27s7.35-5.53,19.16-7.94c10.59-2.16,13.62-8.01,13.62-8.01l-.09,9.89c-2.44-6.83-32.69,6.06-32.69,6.06ZM192.75,33.33c0,1.46-1.14,2.65-2.54,2.65h-.07c-1.4,0-2.54-1.19-2.54-2.65v-4.05c0-1.46,1.14-2.65,2.54-2.65h.07c1.4,0,2.54,1.19,2.54,2.65v4.05Z"/>
      <g>
        <path class="cls-1" d="M210.11,38.44v-10h-2.17v10.06c0,2.31-.29,3.57-1.02,4.47-.98,1.21-2.53,1.82-4.62,1.82-2.61,0-4.59-1.17-5.3-3.12-.26-.71-.34-1.61-.34-3.55v-9.68h-2.17v9.97c0,2.08.1,3.02.42,4.05.88,2.73,3.57,4.29,7.39,4.29,2.19,0,4.24-.68,5.6-1.86,1.63-1.38,2.2-3.07,2.2-6.44M184.14,46.33h2.14l-.66-18.01h-1.5l-5.25,11.39-1.29,3.03s-.14.33-.25.62c-.12-.3-.25-.62-.25-.62,0,0-1.05-2.4-1.05-2.4l-.45-.98-5.21-11.04h-1.58l-.73,18.01h2.04l.44-12.83s.04,0,.04,0c.33.78,1.17,2.75,1.17,2.75l4.74,10.07h1.46l4.71-10.13,1.15-2.76h.04c.07,3.15.29,12.89.29,12.89M159.79,38.44v-10h-2.17v10.06c0,2.31-.29,3.57-1.02,4.47-.97,1.21-2.53,1.82-4.62,1.82-2.61,0-4.59-1.17-5.3-3.12-.25-.71-.34-1.61-.34-3.55v-9.68h-2.17v9.97c0,2.08.1,3.02.42,4.05.88,2.73,3.57,4.29,7.39,4.29,2.2,0,4.24-.68,5.6-1.86,1.63-1.38,2.2-3.07,2.2-6.44M138.01,46.33s-8.14-9.61-8.34-9.85c.2-.2,7.05-7.11,7.98-8.06h-2.77c-1.52,1.54-8.04,8.18-8.54,8.68h0s0-8.68,0-8.68h-2.17v17.9h2.17v-6.65c.09-.09,1.55-1.6,1.78-1.84.24.29,7.14,8.48,7.14,8.48h2.74Z"/>
        <path class="cls-1" d="M210.04,19.97l-.44-3.76h-.34l-1.4,3.05-1.41-3.05h-.34l-.46,3.76h.46l.3-2.71,1.26,2.71h.3l1.28-2.77.29,2.77h.5ZM203.75,19.69c.36-.32.42-.77.42-1.23v-2.26h-.5v2.28c0,.72-.24,1.12-1,1.12s-1.08-.35-1.08-1.12v-2.28h-.5v2.26c0,.42.02.83.31,1.16.3.34.79.43,1.21.43.4,0,.83-.09,1.13-.36M198.04,19.54v-1.34h1.39v-.41h-1.39v-1.16h1.51v-.41h-2.01v3.76h2.2l.07-.43h-1.77ZM194.3,17.11c0-.34.27-.56.6-.56.31,0,.55.16.78.35l.21-.42c-.26-.24-.6-.36-.95-.36-.62,0-1.11.43-1.11,1.07,0,1.23,1.69.97,1.69,1.8,0,.39-.29.64-.67.64-.41,0-.76-.21-1.04-.48l-.1.52c.33.25.67.39,1.09.39.66,0,1.23-.42,1.23-1.12,0-1.24-1.72-.99-1.72-1.82M191.84,19.69c.36-.32.42-.77.42-1.23v-2.26h-.5v2.28c0,.72-.24,1.12-1,1.12s-1.08-.35-1.08-1.12v-2.28h-.5v2.26c0,.42.02.83.31,1.16.3.34.78.43,1.21.43.4,0,.83-.09,1.13-.36M187.07,19.69c.36-.32.42-.77.42-1.23v-2.26h-.5v2.28c0,.72-.24,1.12-1,1.12s-1.08-.35-1.08-1.12v-2.28h-.5v2.26c0,.42.02.83.31,1.16.3.34.79.43,1.21.43.4,0,.83-.09,1.13-.36M182.41,19.97h.5l-.44-3.76h-.34l-1.4,3.05-1.41-3.05h-.34l-.46,3.76h.46l.3-2.71,1.26,2.71h.3l1.28-2.77.29,2.77ZM176.38,19.97h.5v-3.76h-.5v3.76ZM173.87,16.62h1.3v-.41h-3.09v.41h1.3v3.35h.5v-3.35ZM169.33,17.11c0-.34.27-.56.6-.56.31,0,.55.16.78.35l.21-.42c-.26-.24-.6-.36-.95-.36-.62,0-1.11.43-1.11,1.07,0,1.23,1.69.97,1.69,1.8,0,.39-.29.64-.67.64-.41,0-.76-.21-1.04-.48l-.1.52c.33.25.67.39,1.09.39.66,0,1.23-.42,1.23-1.12,0-1.24-1.72-.99-1.72-1.82M167,20.02l.25-.09v-3.72h-.46v2.84l-2.5-2.9-.28.1v3.72h.46v-2.88l2.53,2.93ZM161.88,19.69c.36-.32.42-.77.42-1.23v-2.26h-.5v2.28c0,.72-.24,1.12-1,1.12s-1.08-.35-1.08-1.12v-2.28h-.5v2.26c0,.42.02.83.31,1.16.3.34.79.43,1.21.43.4,0,.83-.09,1.13-.36M157.91,19.97l-1.65-2.05,1.59-1.66-.5-.12-1.81,1.89v-1.84h-.5v3.76h.5v-1.37l.37-.38,1.38,1.74h.64ZM149.76,19.97h.5v-3.76h-.5v3.76ZM147.25,16.62h1.29v-.41h-3.09v.41h1.3v3.35h.5v-3.35ZM142.72,17.11c0-.34.27-.56.6-.56.31,0,.55.16.78.35l.21-.42c-.26-.24-.6-.36-.95-.36-.62,0-1.11.43-1.11,1.07,0,1.23,1.69.97,1.69,1.8,0,.39-.29.64-.67.64-.41,0-.76-.21-1.04-.48l-.1.52c.33.25.67.39,1.09.39.66,0,1.23-.42,1.23-1.12,0-1.24-1.72-.99-1.72-1.82M139.14,19.54v-1.34h1.39v-.41h-1.39v-1.16h1.51v-.41h-2.01v3.76h2.2l.07-.43h-1.77ZM135.49,19.54v-1.34h1.39v-.41h-1.39v-1.16h1.51v-.41h-2.01v3.76h2.2l.07-.43h-1.77Z"/>
        <rect class="cls-1" x="126.84" y="17.72" width=".72" height="2.05"/>
        <polygon class="cls-1" points="126.24 17.72 126.24 20.37 130.21 20.37 130.21 21.09 125.51 21.09 125.51 17.72 126.24 17.72"/>
        <polygon class="cls-1" points="128.88 16.39 128.88 18.44 128.16 18.44 128.16 17.12 125.51 17.12 125.51 16.39 128.88 16.39"/>
        <polygon class="cls-1" points="130.21 15.07 130.21 19.77 128.16 19.77 128.16 19.04 129.48 19.04 129.48 15.07 130.21 15.07"/>
        <path class="cls-1" d="M128.87,15.07v.73c-.13,0-3.97,0-3.97,0v5.3h-.72v-6.02h4.69Z"/>
      </g>
      <g>
        <g>
          <path class="cls-3" d="M158.63,61.55v3.35h-.5v-3.35h-1.29v-.42h3.08v.42h-1.28Z"/>
          <path class="cls-3" d="M164.46,63.01c0,.29-.05.55-.14.79-.09.24-.22.45-.39.62-.17.17-.37.31-.61.4-.24.1-.5.14-.8.14s-.54-.05-.77-.15c-.23-.1-.44-.24-.6-.42-.17-.18-.3-.39-.39-.62-.09-.24-.14-.5-.14-.78s.05-.55.15-.79c.1-.24.23-.44.41-.62.18-.17.38-.31.62-.4.24-.1.5-.14.79-.14s.53.05.77.15c.23.1.43.24.59.42.16.18.29.38.38.62.09.24.14.49.14.76ZM163.93,63.07c0-.2-.03-.4-.1-.59-.06-.19-.16-.36-.28-.5-.12-.15-.27-.26-.44-.35-.18-.09-.38-.13-.6-.13-.21,0-.4.04-.57.11s-.31.17-.43.3c-.12.13-.21.28-.27.46-.06.18-.09.37-.09.57,0,.21.03.42.1.61.07.19.16.36.29.51.12.15.28.26.46.34.18.08.38.13.61.13.21,0,.4-.04.57-.12.17-.08.31-.18.42-.31.11-.13.2-.29.26-.46.06-.18.09-.37.09-.57Z"/>
          <path class="cls-3" d="M169.27,63.01c0,.29-.05.55-.14.79-.09.24-.22.45-.39.62-.17.17-.37.31-.61.4-.24.1-.5.14-.8.14s-.54-.05-.77-.15c-.23-.1-.44-.24-.6-.42-.17-.18-.3-.39-.39-.62-.09-.24-.14-.5-.14-.78s.05-.55.15-.79c.1-.24.23-.44.41-.62.18-.17.38-.31.62-.4.24-.1.5-.14.79-.14s.53.05.77.15c.23.1.43.24.59.42.16.18.29.38.38.62.09.24.14.49.14.76ZM168.74,63.07c0-.2-.03-.4-.1-.59-.06-.19-.16-.36-.28-.5-.12-.15-.27-.26-.44-.35-.18-.09-.38-.13-.6-.13-.21,0-.4.04-.57.11s-.31.17-.43.3c-.12.13-.21.28-.27.46-.06.18-.09.37-.09.57,0,.21.03.42.1.61.07.19.16.36.29.51.12.15.28.26.46.34.18.08.38.13.61.13.21,0,.4-.04.57-.12.17-.08.31-.18.42-.31.11-.13.2-.29.26-.46s.09-.37.09-.57Z"/>
          <path class="cls-3" d="M172.81,63.85c0,.21-.04.38-.13.52-.09.14-.2.25-.34.33-.14.08-.3.14-.47.18-.18.04-.35.05-.53.05-.16,0-.32,0-.48-.02-.16-.01-.32-.03-.47-.05v-3.73c.14-.02.29-.03.44-.04.15,0,.29-.01.44-.01.15,0,.31.02.46.05.15.03.29.08.41.16.12.07.22.17.3.29.08.12.11.27.11.46,0,.12-.02.23-.06.32-.04.09-.09.17-.14.24-.06.07-.12.12-.18.17-.06.04-.12.08-.18.1.25.06.45.18.6.34.15.16.22.37.22.64ZM172.04,62.08c0-.11-.02-.21-.06-.29-.04-.08-.1-.14-.18-.2-.07-.05-.16-.09-.25-.11-.09-.02-.19-.03-.29-.03-.13,0-.26,0-.39.02v1.3h.54c.11,0,.2-.02.28-.06.08-.04.15-.09.2-.15s.1-.13.12-.22c.03-.08.04-.17.04-.27ZM172.29,63.86c0-.13-.02-.24-.07-.34-.05-.09-.11-.17-.2-.23-.08-.06-.18-.1-.29-.13-.11-.03-.23-.04-.36-.04h-.51v1.4c.17.02.34.03.5.03.12,0,.23-.01.34-.03.11-.02.21-.06.3-.11.08-.05.15-.13.21-.22.05-.09.08-.2.08-.34Z"/>
          <path class="cls-3" d="M178.64,64.9l-1.4-1.75-.37.4v1.36h-.5v-3.77h.5v1.84l1.8-1.89.52.1-1.59,1.66,1.66,2.06h-.62Z"/>
          <path class="cls-3" d="M183.72,63.01c0,.29-.05.55-.14.79-.09.24-.22.45-.39.62-.17.17-.37.31-.61.4s-.5.14-.8.14-.54-.05-.77-.15c-.23-.1-.44-.24-.6-.42-.17-.18-.3-.39-.39-.62-.09-.24-.14-.5-.14-.78s.05-.55.15-.79c.1-.24.23-.44.41-.62.18-.17.38-.31.62-.4.24-.1.5-.14.79-.14s.53.05.77.15c.23.1.43.24.59.42.16.18.29.38.38.62.09.24.14.49.14.76ZM183.19,63.07c0-.2-.03-.4-.1-.59-.06-.19-.16-.36-.28-.5-.12-.15-.27-.26-.44-.35-.18-.09-.38-.13-.6-.13-.21,0-.4.04-.57.11s-.31.17-.43.3c-.12.13-.21.28-.27.46-.06.18-.09.37-.09.57,0,.21.03.42.1.61.07.19.16.36.29.51.12.15.28.26.46.34.18.08.38.13.61.13.21,0,.4-.04.57-.12.17-.08.31-.18.42-.31.11-.13.2-.29.26-.46s.09-.37.09-.57Z"/>
          <path class="cls-3" d="M187.22,64.9l-1.4-1.75-.37.4v1.36h-.5v-3.77h.5v1.84l1.8-1.89.52.1-1.59,1.66,1.66,2.06h-.62Z"/>
          <path class="cls-3" d="M191.28,64.9l-1.4-1.75-.37.4v1.36h-.5v-3.77h.5v1.84l1.8-1.89.52.1-1.59,1.66,1.66,2.06h-.62Z"/>
          <path class="cls-3" d="M196.11,63.38c0,.11,0,.23-.01.34,0,.11-.03.22-.06.33-.03.11-.07.21-.12.3-.05.09-.12.18-.21.26-.15.14-.33.24-.53.29s-.4.08-.6.08c-.13,0-.26,0-.39-.03-.13-.02-.25-.05-.36-.09-.11-.04-.22-.1-.32-.17-.1-.07-.18-.16-.25-.26-.05-.07-.09-.15-.12-.24-.03-.09-.05-.18-.07-.27s-.03-.19-.03-.28c0-.09,0-.18,0-.27v-2.25h.5v2.25c0,.19.02.36.05.52.03.15.1.28.22.39.1.09.21.16.34.2.13.04.28.07.45.07s.32-.02.46-.07c.14-.05.25-.12.34-.22.09-.1.16-.23.19-.39.03-.16.05-.32.05-.5v-2.25h.5v2.26Z"/>
          <path class="cls-3" d="M198.34,64.65c0,.09-.03.16-.09.22-.06.05-.13.08-.22.08s-.16-.03-.21-.08-.08-.13-.08-.21c0-.09.03-.17.08-.23.05-.06.13-.08.22-.08s.17.03.23.08.08.13.08.23ZM198.19,63.98h-.34l-.11-2.86h.55l-.1,2.86Z"/>
        </g>
        <path class="cls-3" d="M153.9,63.25v-2.09h-.45v2.1c0,.48-.06.75-.21.93-.2.25-.53.38-.97.38-.55,0-.96-.24-1.11-.65-.05-.15-.07-.34-.07-.74v-2.02h-.45v2.08c0,.43.02.63.09.85.18.57.75.9,1.54.9.46,0,.89-.14,1.17-.39.34-.29.46-.64.46-1.35M148.47,64.9h.45l-.14-3.76h-.31l-1.1,2.38-.27.63s-.03.07-.05.13c-.03-.06-.05-.13-.05-.13,0,0-.22-.5-.22-.5l-.09-.2-1.09-2.31h-.33l-.15,3.76h.43l.09-2.68s0,0,0,0c.07.16.24.58.24.58l.99,2.1h.3l.98-2.12.24-.58h0c.02.66.06,2.69.06,2.69M143.38,63.25v-2.09h-.45v2.1c0,.48-.06.75-.21.93-.2.25-.53.38-.97.38-.55,0-.96-.24-1.11-.65-.05-.15-.07-.34-.07-.74v-2.02h-.45v2.08c0,.43.02.63.09.85.18.57.75.9,1.54.9.46,0,.89-.14,1.17-.39.34-.29.46-.64.46-1.35M138.83,64.9s-1.7-2.01-1.74-2.06c.04-.04,1.47-1.49,1.67-1.68h-.58c-.32.32-1.68,1.71-1.78,1.81h0s0-1.81,0-1.81h-.45v3.74h.45v-1.39s.32-.33.37-.38c.05.06,1.49,1.77,1.49,1.77h.57Z"/>
      </g>
    </g>
    <g>
      <path class="cls-1" d="M96.26,73.25h-21.23c-5.9,0-10.36,3.7-12.55,9.01-1.52-3.65-6.63-9.27-19.91-8.97,0,0-12.32-.03-16.43,0-5.4.04-14.9,1.11-16.98,15.44-1.5,10.33-.22,12.3,1.82,13.82,1.37,1.03,3.05.88,3.97.49,2.03-.84,4.96-1.87,9.5-3.01,1.22-.31,5.54-.84,8.09-3.13.69-.65,1.32-1.47,1.89-2.02.87-.82,1.85-1.67,2.93-2.01,1.32-.38,2.99.08,3.76,1.36.94,1.67-.33,3.26-1.86,4.09-.68.38-1.43.69-2.19.96-1.56.53-3.19.84-4.83.95-4.04.26-15.79,1.47-21.25,7-.56.57-2.36,1.89-2.25,6.75,0,0,0,5.96,1.43,8.74.84,1.63,2.34,3.03,4.75,3.57,1.5.34,6.15.49,8.57.41l29.12.06s7.76.36,9.87-7.7c2.44,4.61,7.15,7.73,12.56,7.73h21.23c7.91,0,14.33-6.68,14.33-14.92v-23.7c0-8.24-6.42-14.92-14.33-14.92ZM28.43,113.38s7.35-5.53,19.16-7.94c10.59-2.16,13.62-8.01,13.62-8.01l-.09,9.89c-2.44-6.83-32.69,6.06-32.69,6.06ZM85.16,102.44c0,1.46-1.14,2.65-2.54,2.65h-.07c-1.4,0-2.54-1.19-2.54-2.65v-4.05c0-1.46,1.14-2.65,2.54-2.65h.07c1.4,0,2.54,1.19,2.54,2.65v4.05Z"/>
      <g>
        <path class="cls-2" d="M102.51,107.55v-10h-2.17v10.06c0,2.31-.29,3.57-1.02,4.47-.98,1.21-2.53,1.82-4.62,1.82-2.61,0-4.59-1.17-5.3-3.12-.26-.71-.34-1.61-.34-3.55v-9.68h-2.17v9.97c0,2.08.1,3.02.42,4.05.88,2.73,3.57,4.29,7.39,4.29,2.19,0,4.24-.68,5.6-1.86,1.63-1.38,2.2-3.07,2.2-6.44M76.54,115.44h2.14l-.66-18.01h-1.5l-5.25,11.39-1.29,3.03s-.14.33-.25.62c-.12-.3-.25-.62-.25-.62,0,0-1.05-2.4-1.05-2.4l-.45-.98-5.21-11.04h-1.58l-.73,18.01h2.04l.44-12.83s.04,0,.04,0c.33.78,1.17,2.75,1.17,2.75l4.74,10.07h1.46l4.71-10.13,1.15-2.76h.04c.07,3.15.29,12.89.29,12.89M52.19,107.55v-10h-2.17v10.06c0,2.31-.29,3.57-1.02,4.47-.97,1.21-2.53,1.82-4.62,1.82-2.61,0-4.59-1.17-5.3-3.12-.25-.71-.34-1.61-.34-3.55v-9.68h-2.17v9.97c0,2.08.1,3.02.42,4.05.88,2.73,3.57,4.29,7.39,4.29,2.2,0,4.24-.68,5.6-1.86,1.63-1.38,2.2-3.07,2.2-6.44M30.41,115.44s-8.14-9.61-8.34-9.85c.2-.2,7.05-7.11,7.98-8.06h-2.77c-1.52,1.54-8.04,8.18-8.54,8.68h0s0-8.68,0-8.68h-2.17v17.9h2.17v-6.65c.09-.09,1.55-1.6,1.78-1.84.24.29,7.14,8.48,7.14,8.48h2.74Z"/>
        <path class="cls-2" d="M102.44,89.08l-.44-3.76h-.34l-1.4,3.05-1.41-3.05h-.34l-.46,3.76h.46l.3-2.71,1.26,2.71h.3l1.28-2.77.29,2.77h.5ZM96.15,88.8c.36-.32.42-.77.42-1.23v-2.26h-.5v2.28c0,.72-.24,1.12-1,1.12s-1.08-.35-1.08-1.12v-2.28h-.5v2.26c0,.42.02.83.31,1.16.3.34.79.43,1.21.43.4,0,.83-.09,1.13-.36M90.45,88.65v-1.34h1.39v-.41h-1.39v-1.16h1.51v-.41h-2.01v3.76h2.2l.07-.43h-1.77ZM86.7,86.23c0-.34.27-.56.6-.56.31,0,.55.16.78.35l.21-.42c-.26-.24-.6-.36-.95-.36-.62,0-1.11.43-1.11,1.07,0,1.23,1.69.97,1.69,1.8,0,.39-.29.64-.67.64-.41,0-.76-.21-1.04-.48l-.1.52c.33.25.67.39,1.09.39.66,0,1.23-.42,1.23-1.12,0-1.24-1.72-.99-1.72-1.82M84.25,88.8c.36-.32.42-.77.42-1.23v-2.26h-.5v2.28c0,.72-.24,1.12-1,1.12s-1.08-.35-1.08-1.12v-2.28h-.5v2.26c0,.42.02.83.31,1.16.3.34.78.43,1.21.43.4,0,.83-.09,1.13-.36M79.47,88.8c.36-.32.42-.77.42-1.23v-2.26h-.5v2.28c0,.72-.24,1.12-1,1.12s-1.08-.35-1.08-1.12v-2.28h-.5v2.26c0,.42.02.83.31,1.16.3.34.79.43,1.21.43.4,0,.83-.09,1.13-.36M74.82,89.08h.5l-.44-3.76h-.34l-1.4,3.05-1.41-3.05h-.34l-.46,3.76h.46l.3-2.71,1.26,2.71h.3l1.28-2.77.29,2.77ZM68.79,89.08h.5v-3.76h-.5v3.76ZM66.27,85.73h1.3v-.41h-3.09v.41h1.3v3.35h.5v-3.35ZM61.74,86.23c0-.34.27-.56.6-.56.31,0,.55.16.78.35l.21-.42c-.26-.24-.6-.36-.95-.36-.62,0-1.11.43-1.11,1.07,0,1.23,1.69.97,1.69,1.8,0,.39-.29.64-.67.64-.41,0-.76-.21-1.04-.48l-.1.52c.33.25.67.39,1.09.39.66,0,1.23-.42,1.23-1.12,0-1.24-1.72-.99-1.72-1.82M59.4,89.13l.25-.09v-3.72h-.46v2.84l-2.5-2.9-.28.1v3.72h.46v-2.88l2.53,2.93ZM54.28,88.8c.36-.32.42-.77.42-1.23v-2.26h-.5v2.28c0,.72-.24,1.12-1,1.12s-1.08-.35-1.08-1.12v-2.28h-.5v2.26c0,.42.02.83.31,1.16.3.34.79.43,1.21.43.4,0,.83-.09,1.13-.36M50.32,89.08l-1.65-2.05,1.59-1.66-.5-.12-1.81,1.89v-1.84h-.5v3.76h.5v-1.37l.37-.38,1.38,1.74h.64ZM42.17,89.08h.5v-3.76h-.5v3.76ZM39.65,85.73h1.29v-.41h-3.09v.41h1.3v3.35h.5v-3.35ZM35.12,86.23c0-.34.27-.56.6-.56.31,0,.55.16.78.35l.21-.42c-.26-.24-.6-.36-.95-.36-.62,0-1.11.43-1.11,1.07,0,1.23,1.69.97,1.69,1.8,0,.39-.29.64-.67.64-.41,0-.76-.21-1.04-.48l-.1.52c.33.25.67.39,1.09.39.66,0,1.23-.42,1.23-1.12,0-1.24-1.72-.99-1.72-1.82M31.54,88.65v-1.34h1.39v-.41h-1.39v-1.16h1.51v-.41h-2.01v3.76h2.2l.07-.43h-1.77ZM27.89,88.65v-1.34h1.39v-.41h-1.39v-1.16h1.51v-.41h-2.01v3.76h2.2l.07-.43h-1.77Z"/>
        <rect class="cls-2" x="19.24" y="86.83" width=".72" height="2.05"/>
        <polygon class="cls-2" points="18.64 86.83 18.64 89.48 22.61 89.48 22.61 90.2 17.92 90.2 17.92 86.83 18.64 86.83"/>
        <polygon class="cls-2" points="21.29 85.5 21.29 87.56 20.56 87.56 20.56 86.23 17.92 86.23 17.92 85.5 21.29 85.5"/>
        <polygon class="cls-2" points="22.61 84.18 22.61 88.88 20.56 88.88 20.56 88.15 21.89 88.15 21.89 84.18 22.61 84.18"/>
        <path class="cls-2" d="M21.28,84.18v.73c-.13,0-3.97,0-3.97,0v5.3h-.72v-6.02h4.69Z"/>
      </g>
      <g>
        <g>
          <path class="cls-1" d="M51.04,130.66v3.35h-.5v-3.35h-1.29v-.42h3.08v.42h-1.28Z"/>
          <path class="cls-1" d="M56.86,132.12c0,.29-.05.55-.14.79-.09.24-.22.45-.39.62-.17.17-.37.31-.61.4-.24.1-.5.14-.8.14s-.54-.05-.77-.15c-.23-.1-.44-.24-.6-.42-.17-.18-.3-.39-.39-.62-.09-.24-.14-.5-.14-.78s.05-.55.15-.79c.1-.24.23-.44.41-.62.18-.17.38-.31.62-.4.24-.1.5-.14.79-.14s.53.05.77.15c.23.1.43.24.59.42.16.18.29.38.38.62.09.24.14.49.14.76ZM56.33,132.18c0-.2-.03-.4-.1-.59-.06-.19-.16-.36-.28-.5-.12-.15-.27-.26-.44-.35-.18-.09-.38-.13-.6-.13-.21,0-.4.04-.57.11s-.31.17-.43.3c-.12.13-.21.28-.27.46-.06.18-.09.37-.09.57,0,.21.03.42.1.61.07.19.16.36.29.51.12.15.28.26.46.34.18.08.38.13.61.13.21,0,.4-.04.57-.12.17-.08.31-.18.42-.31.11-.13.2-.29.26-.46.06-.18.09-.37.09-.57Z"/>
          <path class="cls-1" d="M61.67,132.12c0,.29-.05.55-.14.79-.09.24-.22.45-.39.62-.17.17-.37.31-.61.4-.24.1-.5.14-.8.14s-.54-.05-.77-.15c-.23-.1-.44-.24-.6-.42-.17-.18-.3-.39-.39-.62-.09-.24-.14-.5-.14-.78s.05-.55.15-.79c.1-.24.23-.44.41-.62.18-.17.38-.31.62-.4.24-.1.5-.14.79-.14s.53.05.77.15c.23.1.43.24.59.42.16.18.29.38.38.62.09.24.14.49.14.76ZM61.14,132.18c0-.2-.03-.4-.1-.59-.06-.19-.16-.36-.28-.5-.12-.15-.27-.26-.44-.35-.18-.09-.38-.13-.6-.13-.21,0-.4.04-.57.11s-.31.17-.43.3c-.12.13-.21.28-.27.46-.06.18-.09.37-.09.57,0,.21.03.42.1.61.07.19.16.36.29.51.12.15.28.26.46.34.18.08.38.13.61.13.21,0,.4-.04.57-.12.17-.08.31-.18.42-.31.11-.13.2-.29.26-.46s.09-.37.09-.57Z"/>
          <path class="cls-1" d="M65.21,132.96c0,.21-.04.38-.13.52-.09.14-.2.25-.34.33-.14.08-.3.14-.47.18-.18.04-.35.05-.53.05-.16,0-.32,0-.48-.02-.16-.01-.32-.03-.47-.05v-3.73c.14-.02.29-.03.44-.04.15,0,.29-.01.44-.01.15,0,.31.02.46.05.15.03.29.08.41.16.12.07.22.17.3.29.08.12.11.27.11.46,0,.12-.02.23-.06.32-.04.09-.09.17-.14.24-.06.07-.12.12-.18.17-.06.04-.12.08-.18.1.25.06.45.18.6.34.15.16.22.37.22.64ZM64.44,131.19c0-.11-.02-.21-.06-.29-.04-.08-.1-.14-.18-.2-.07-.05-.16-.09-.25-.11-.09-.02-.19-.03-.29-.03-.13,0-.26,0-.39.02v1.3h.54c.11,0,.2-.02.28-.06.08-.04.15-.09.2-.15s.1-.13.12-.22c.03-.08.04-.17.04-.27ZM64.69,132.97c0-.13-.02-.24-.07-.34-.05-.09-.11-.17-.2-.23-.08-.06-.18-.1-.29-.13-.11-.03-.23-.04-.36-.04h-.51v1.4c.17.02.34.03.5.03.12,0,.23-.01.34-.03.11-.02.21-.06.3-.11.08-.05.15-.13.21-.22.05-.09.08-.2.08-.34Z"/>
          <path class="cls-1" d="M71.05,134.01l-1.4-1.75-.37.4v1.36h-.5v-3.77h.5v1.84l1.8-1.89.52.1-1.59,1.66,1.66,2.06h-.62Z"/>
          <path class="cls-1" d="M76.13,132.12c0,.29-.05.55-.14.79-.09.24-.22.45-.39.62-.17.17-.37.31-.61.4s-.5.14-.8.14-.54-.05-.77-.15c-.23-.1-.44-.24-.6-.42-.17-.18-.3-.39-.39-.62-.09-.24-.14-.5-.14-.78s.05-.55.15-.79c.1-.24.23-.44.41-.62.18-.17.38-.31.62-.4.24-.1.5-.14.79-.14s.53.05.77.15c.23.1.43.24.59.42.16.18.29.38.38.62.09.24.14.49.14.76ZM75.6,132.18c0-.2-.03-.4-.1-.59-.06-.19-.16-.36-.28-.5-.12-.15-.27-.26-.44-.35-.18-.09-.38-.13-.6-.13-.21,0-.4.04-.57.11s-.31.17-.43.3c-.12.13-.21.28-.27.46-.06.18-.09.37-.09.57,0,.21.03.42.1.61.07.19.16.36.29.51.12.15.28.26.46.34.18.08.38.13.61.13.21,0,.4-.04.57-.12.17-.08.31-.18.42-.31.11-.13.2-.29.26-.46s.09-.37.09-.57Z"/>
          <path class="cls-1" d="M79.63,134.01l-1.4-1.75-.37.4v1.36h-.5v-3.77h.5v1.84l1.8-1.89.52.1-1.59,1.66,1.66,2.06h-.62Z"/>
          <path class="cls-1" d="M83.68,134.01l-1.4-1.75-.37.4v1.36h-.5v-3.77h.5v1.84l1.8-1.89.52.1-1.59,1.66,1.66,2.06h-.62Z"/>
          <path class="cls-1" d="M88.51,132.5c0,.11,0,.23-.01.34,0,.11-.03.22-.06.33-.03.11-.07.21-.12.3-.05.09-.12.18-.21.26-.15.14-.33.24-.53.29s-.4.08-.6.08c-.13,0-.26,0-.39-.03-.13-.02-.25-.05-.36-.09-.11-.04-.22-.1-.32-.17-.1-.07-.18-.16-.25-.26-.05-.07-.09-.15-.12-.24-.03-.09-.05-.18-.07-.27s-.03-.19-.03-.28c0-.09,0-.18,0-.27v-2.25h.5v2.25c0,.19.02.36.05.52.03.15.1.28.22.39.1.09.21.16.34.2.13.04.28.07.45.07s.32-.02.46-.07c.14-.05.25-.12.34-.22.09-.1.16-.23.19-.39.03-.16.05-.32.05-.5v-2.25h.5v2.26Z"/>
          <path class="cls-1" d="M90.74,133.76c0,.09-.03.16-.09.22-.06.05-.13.08-.22.08s-.16-.03-.21-.08-.08-.13-.08-.21c0-.09.03-.17.08-.23.05-.06.13-.08.22-.08s.17.03.23.08.08.13.08.23ZM90.59,133.09h-.34l-.11-2.86h.55l-.1,2.86Z"/>
        </g>
        <path class="cls-1" d="M46.3,132.36v-2.09h-.45v2.1c0,.48-.06.75-.21.93-.2.25-.53.38-.97.38-.55,0-.96-.24-1.11-.65-.05-.15-.07-.34-.07-.74v-2.02h-.45v2.08c0,.43.02.63.09.85.18.57.75.9,1.54.9.46,0,.89-.14,1.17-.39.34-.29.46-.64.46-1.35M40.88,134.01h.45l-.14-3.76h-.31l-1.1,2.38-.27.63s-.03.07-.05.13c-.03-.06-.05-.13-.05-.13,0,0-.22-.5-.22-.5l-.09-.2-1.09-2.31h-.33l-.15,3.76h.43l.09-2.68s0,0,0,0c.07.16.24.58.24.58l.99,2.1h.3l.98-2.12.24-.58h0c.02.66.06,2.69.06,2.69M35.79,132.36v-2.09h-.45v2.1c0,.48-.06.75-.21.93-.2.25-.53.38-.97.38-.55,0-.96-.24-1.11-.65-.05-.15-.07-.34-.07-.74v-2.02h-.45v2.08c0,.43.02.63.09.85.18.57.75.9,1.54.9.46,0,.89-.14,1.17-.39.34-.29.46-.64.46-1.35M31.24,134.01s-1.7-2.01-1.74-2.06c.04-.04,1.47-1.49,1.67-1.68h-.58c-.32.32-1.68,1.71-1.78,1.81h0s0-1.81,0-1.81h-.45v3.74h.45v-1.39s.32-.33.37-.38c.05.06,1.49,1.77,1.49,1.77h.57Z"/>
      </g>
    </g>
    <g>
      <g>
        <path class="cls-2" d="M96.34,4.09h-21.23c-5.9,0-10.36,3.7-12.55,9.01-1.52-3.65-6.63-9.27-19.91-8.97,0,0-12.32-.03-16.43,0-5.4.04-14.9,1.11-16.98,15.44-1.5,10.33-.22,12.3,1.82,13.82,1.37,1.03,3.05.88,3.97.49,2.03-.84,4.96-1.87,9.5-3.01,1.22-.31,5.54-.84,8.09-3.13.69-.65,1.32-1.47,1.89-2.02.87-.82,1.85-1.67,2.93-2.01,1.32-.38,2.99.08,3.76,1.36.94,1.67-.33,3.26-1.86,4.09-.68.38-1.43.69-2.19.96-1.56.53-3.19.84-4.83.95-4.04.26-15.79,1.47-21.25,7-.56.57-2.36,1.89-2.25,6.75,0,0,0,5.96,1.43,8.74.84,1.63,2.34,3.03,4.75,3.57,1.5.34,6.15.49,8.57.41l29.12.06s7.76.36,9.87-7.7c2.44,4.61,7.15,7.73,12.56,7.73h21.23c7.91,0,14.33-6.68,14.33-14.92v-23.7c0-8.24-6.42-14.92-14.33-14.92ZM28.51,44.22s7.35-5.53,19.16-7.94c10.59-2.16,13.62-8.01,13.62-8.01l-.09,9.89c-2.44-6.83-32.69,6.06-32.69,6.06ZM85.24,33.28c0,1.46-1.14,2.65-2.54,2.65h-.07c-1.4,0-2.54-1.19-2.54-2.65v-4.05c0-1.46,1.14-2.65,2.54-2.65h.07c1.4,0,2.54,1.19,2.54,2.65v4.05Z"/>
        <g>
          <path class="cls-1" d="M102.59,38.39v-10h-2.17v10.06c0,2.31-.29,3.57-1.02,4.47-.98,1.21-2.53,1.82-4.62,1.82-2.61,0-4.59-1.17-5.3-3.12-.26-.71-.34-1.61-.34-3.55v-9.68h-2.17v9.97c0,2.08.1,3.02.42,4.05.88,2.73,3.57,4.29,7.39,4.29,2.19,0,4.24-.68,5.6-1.86,1.63-1.38,2.2-3.07,2.2-6.44M76.63,46.28h2.14l-.66-18.01h-1.5l-5.25,11.39-1.29,3.03s-.14.33-.25.62c-.12-.3-.25-.62-.25-.62,0,0-1.05-2.4-1.05-2.4l-.45-.98-5.21-11.04h-1.58l-.73,18.01h2.04l.44-12.83s.04,0,.04,0c.33.78,1.17,2.75,1.17,2.75l4.74,10.07h1.46l4.71-10.13,1.15-2.76h.04c.07,3.15.29,12.89.29,12.89M52.28,38.39v-10h-2.17v10.06c0,2.31-.29,3.57-1.02,4.47-.97,1.21-2.53,1.82-4.62,1.82-2.61,0-4.59-1.17-5.3-3.12-.25-.71-.34-1.61-.34-3.55v-9.68h-2.17v9.97c0,2.08.1,3.02.42,4.05.88,2.73,3.57,4.29,7.39,4.29,2.2,0,4.24-.68,5.6-1.86,1.63-1.38,2.2-3.07,2.2-6.44M30.49,46.28s-8.14-9.61-8.34-9.85c.2-.2,7.05-7.11,7.98-8.06h-2.77c-1.52,1.54-8.04,8.18-8.54,8.68h0s0-8.68,0-8.68h-2.17v17.9h2.17v-6.65c.09-.09,1.55-1.6,1.78-1.84.24.29,7.14,8.48,7.14,8.48h2.74Z"/>
          <path class="cls-1" d="M102.53,19.92l-.44-3.76h-.34l-1.4,3.05-1.41-3.05h-.34l-.46,3.76h.46l.3-2.71,1.26,2.71h.3l1.28-2.77.29,2.77h.5ZM96.24,19.64c.36-.32.42-.77.42-1.23v-2.26h-.5v2.28c0,.72-.24,1.12-1,1.12s-1.08-.35-1.08-1.12v-2.28h-.5v2.26c0,.42.02.83.31,1.16.3.34.79.43,1.21.43.4,0,.83-.09,1.13-.36M90.53,19.49v-1.34h1.39v-.41h-1.39v-1.16h1.51v-.41h-2.01v3.76h2.2l.07-.43h-1.77ZM86.78,17.07c0-.34.27-.56.6-.56.31,0,.55.16.78.35l.21-.42c-.26-.24-.6-.36-.95-.36-.62,0-1.11.43-1.11,1.07,0,1.23,1.69.97,1.69,1.8,0,.39-.29.64-.67.64-.41,0-.76-.21-1.04-.48l-.1.52c.33.25.67.39,1.09.39.66,0,1.23-.42,1.23-1.12,0-1.24-1.72-.99-1.72-1.82M84.33,19.64c.36-.32.42-.77.42-1.23v-2.26h-.5v2.28c0,.72-.24,1.12-1,1.12s-1.08-.35-1.08-1.12v-2.28h-.5v2.26c0,.42.02.83.31,1.16.3.34.78.43,1.21.43.4,0,.83-.09,1.13-.36M79.55,19.64c.36-.32.42-.77.42-1.23v-2.26h-.5v2.28c0,.72-.24,1.12-1,1.12s-1.08-.35-1.08-1.12v-2.28h-.5v2.26c0,.42.02.83.31,1.16.3.34.79.43,1.21.43.4,0,.83-.09,1.13-.36M74.9,19.92h.5l-.44-3.76h-.34l-1.4,3.05-1.41-3.05h-.34l-.46,3.76h.46l.3-2.71,1.26,2.71h.3l1.28-2.77.29,2.77ZM68.87,19.92h.5v-3.76h-.5v3.76ZM66.35,16.57h1.3v-.41h-3.09v.41h1.3v3.35h.5v-3.35ZM61.82,17.07c0-.34.27-.56.6-.56.31,0,.55.16.78.35l.21-.42c-.26-.24-.6-.36-.95-.36-.62,0-1.11.43-1.11,1.07,0,1.23,1.69.97,1.69,1.8,0,.39-.29.64-.67.64-.41,0-.76-.21-1.04-.48l-.1.52c.33.25.67.39,1.09.39.66,0,1.23-.42,1.23-1.12,0-1.24-1.72-.99-1.72-1.82M59.48,19.97l.25-.09v-3.72h-.46v2.84l-2.5-2.9-.28.1v3.72h.46v-2.88l2.53,2.93ZM54.36,19.64c.36-.32.42-.77.42-1.23v-2.26h-.5v2.28c0,.72-.24,1.12-1,1.12s-1.08-.35-1.08-1.12v-2.28h-.5v2.26c0,.42.02.83.31,1.16.3.34.79.43,1.21.43.4,0,.83-.09,1.13-.36M50.4,19.92l-1.65-2.05,1.59-1.66-.5-.12-1.81,1.89v-1.84h-.5v3.76h.5v-1.37l.37-.38,1.38,1.74h.64ZM42.25,19.92h.5v-3.76h-.5v3.76ZM39.73,16.57h1.29v-.41h-3.09v.41h1.3v3.35h.5v-3.35ZM35.2,17.07c0-.34.27-.56.6-.56.31,0,.55.16.78.35l.21-.42c-.26-.24-.6-.36-.95-.36-.62,0-1.11.43-1.11,1.07,0,1.23,1.69.97,1.69,1.8,0,.39-.29.64-.67.64-.41,0-.76-.21-1.04-.48l-.1.52c.33.25.67.39,1.09.39.66,0,1.23-.42,1.23-1.12,0-1.24-1.72-.99-1.72-1.82M31.63,19.49v-1.34h1.39v-.41h-1.39v-1.16h1.51v-.41h-2.01v3.76h2.2l.07-.43h-1.77ZM27.98,19.49v-1.34h1.39v-.41h-1.39v-1.16h1.51v-.41h-2.01v3.76h2.2l.07-.43h-1.77Z"/>
          <rect class="cls-1" x="19.32" y="17.67" width=".72" height="2.05"/>
          <polygon class="cls-1" points="18.73 17.67 18.73 20.32 22.69 20.32 22.69 21.04 18 21.04 18 17.67 18.73 17.67"/>
          <polygon class="cls-1" points="21.37 16.34 21.37 18.4 20.64 18.4 20.64 17.07 18 17.07 18 16.34 21.37 16.34"/>
          <polygon class="cls-1" points="22.69 15.02 22.69 19.72 20.64 19.72 20.64 18.99 21.97 18.99 21.97 15.02 22.69 15.02"/>
          <path class="cls-1" d="M21.36,15.02v.73c-.13,0-3.97,0-3.97,0v5.3h-.72v-6.02h4.69Z"/>
        </g>
      </g>
      <g>
        <g>
          <path class="cls-2" d="M51.12,61.5v3.35h-.5v-3.35h-1.29v-.42h3.08v.42h-1.28Z"/>
          <path class="cls-2" d="M56.94,62.96c0,.29-.05.55-.14.79-.09.24-.22.45-.39.62-.17.17-.37.31-.61.4-.24.1-.5.14-.8.14s-.54-.05-.77-.15c-.23-.1-.44-.24-.6-.42-.17-.18-.3-.39-.39-.62-.09-.24-.14-.5-.14-.78s.05-.55.15-.79c.1-.24.23-.44.41-.62.18-.17.38-.31.62-.4.24-.1.5-.14.79-.14s.53.05.77.15c.23.1.43.24.59.42.16.18.29.38.38.62.09.24.14.49.14.76ZM56.41,63.02c0-.2-.03-.4-.1-.59-.06-.19-.16-.36-.28-.5-.12-.15-.27-.26-.44-.35-.18-.09-.38-.13-.6-.13-.21,0-.4.04-.57.11s-.31.17-.43.3c-.12.13-.21.28-.27.46-.06.18-.09.37-.09.57,0,.21.03.42.1.61.07.19.16.36.29.51.12.15.28.26.46.34.18.08.38.13.61.13.21,0,.4-.04.57-.12.17-.08.31-.18.42-.31.11-.13.2-.29.26-.46.06-.18.09-.37.09-.57Z"/>
          <path class="cls-2" d="M61.76,62.96c0,.29-.05.55-.14.79-.09.24-.22.45-.39.62-.17.17-.37.31-.61.4-.24.1-.5.14-.8.14s-.54-.05-.77-.15c-.23-.1-.44-.24-.6-.42-.17-.18-.3-.39-.39-.62-.09-.24-.14-.5-.14-.78s.05-.55.15-.79c.1-.24.23-.44.41-.62.18-.17.38-.31.62-.4.24-.1.5-.14.79-.14s.53.05.77.15c.23.1.43.24.59.42.16.18.29.38.38.62.09.24.14.49.14.76ZM61.22,63.02c0-.2-.03-.4-.1-.59-.06-.19-.16-.36-.28-.5-.12-.15-.27-.26-.44-.35-.18-.09-.38-.13-.6-.13-.21,0-.4.04-.57.11s-.31.17-.43.3c-.12.13-.21.28-.27.46-.06.18-.09.37-.09.57,0,.21.03.42.1.61.07.19.16.36.29.51.12.15.28.26.46.34.18.08.38.13.61.13.21,0,.4-.04.57-.12.17-.08.31-.18.42-.31.11-.13.2-.29.26-.46s.09-.37.09-.57Z"/>
          <path class="cls-2" d="M65.29,63.8c0,.21-.04.38-.13.52-.09.14-.2.25-.34.33-.14.08-.3.14-.47.18-.18.04-.35.05-.53.05-.16,0-.32,0-.48-.02-.16-.01-.32-.03-.47-.05v-3.73c.14-.02.29-.03.44-.04.15,0,.29-.01.44-.01.15,0,.31.02.46.05.15.03.29.08.41.16.12.07.22.17.3.29.08.12.11.27.11.46,0,.12-.02.23-.06.32-.04.09-.09.17-.14.24-.06.07-.12.12-.18.17-.06.04-.12.08-.18.1.25.06.45.18.6.34.15.16.22.37.22.64ZM64.53,62.03c0-.11-.02-.21-.06-.29-.04-.08-.1-.14-.18-.2-.07-.05-.16-.09-.25-.11-.09-.02-.19-.03-.29-.03-.13,0-.26,0-.39.02v1.3h.54c.11,0,.2-.02.28-.06.08-.04.15-.09.2-.15s.1-.13.12-.22c.03-.08.04-.17.04-.27ZM64.77,63.81c0-.13-.02-.24-.07-.34-.05-.09-.11-.17-.2-.23-.08-.06-.18-.1-.29-.13-.11-.03-.23-.04-.36-.04h-.51v1.4c.17.02.34.03.5.03.12,0,.23-.01.34-.03.11-.02.21-.06.3-.11.08-.05.15-.13.21-.22.05-.09.08-.2.08-.34Z"/>
          <path class="cls-2" d="M71.13,64.85l-1.4-1.75-.37.4v1.36h-.5v-3.77h.5v1.84l1.8-1.89.52.1-1.59,1.66,1.66,2.06h-.62Z"/>
          <path class="cls-2" d="M76.21,62.96c0,.29-.05.55-.14.79-.09.24-.22.45-.39.62-.17.17-.37.31-.61.4s-.5.14-.8.14-.54-.05-.77-.15c-.23-.1-.44-.24-.6-.42-.17-.18-.3-.39-.39-.62-.09-.24-.14-.5-.14-.78s.05-.55.15-.79c.1-.24.23-.44.41-.62.18-.17.38-.31.62-.4.24-.1.5-.14.79-.14s.53.05.77.15c.23.1.43.24.59.42.16.18.29.38.38.62.09.24.14.49.14.76ZM75.68,63.02c0-.2-.03-.4-.1-.59-.06-.19-.16-.36-.28-.5-.12-.15-.27-.26-.44-.35-.18-.09-.38-.13-.6-.13-.21,0-.4.04-.57.11s-.31.17-.43.3c-.12.13-.21.28-.27.46-.06.18-.09.37-.09.57,0,.21.03.42.1.61.07.19.16.36.29.51.12.15.28.26.46.34.18.08.38.13.61.13.21,0,.4-.04.57-.12.17-.08.31-.18.42-.31.11-.13.2-.29.26-.46s.09-.37.09-.57Z"/>
          <path class="cls-2" d="M79.71,64.85l-1.4-1.75-.37.4v1.36h-.5v-3.77h.5v1.84l1.8-1.89.52.1-1.59,1.66,1.66,2.06h-.62Z"/>
          <path class="cls-2" d="M83.76,64.85l-1.4-1.75-.37.4v1.36h-.5v-3.77h.5v1.84l1.8-1.89.52.1-1.59,1.66,1.66,2.06h-.62Z"/>
          <path class="cls-2" d="M88.59,63.34c0,.11,0,.23-.01.34,0,.11-.03.22-.06.33-.03.11-.07.21-.12.3-.05.09-.12.18-.21.26-.15.14-.33.24-.53.29s-.4.08-.6.08c-.13,0-.26,0-.39-.03-.13-.02-.25-.05-.36-.09-.11-.04-.22-.1-.32-.17-.1-.07-.18-.16-.25-.26-.05-.07-.09-.15-.12-.24-.03-.09-.05-.18-.07-.27s-.03-.19-.03-.28c0-.09,0-.18,0-.27v-2.25h.5v2.25c0,.19.02.36.05.52.03.15.1.28.22.39.1.09.21.16.34.2.13.04.28.07.45.07s.32-.02.46-.07c.14-.05.25-.12.34-.22.09-.1.16-.23.19-.39.03-.16.05-.32.05-.5v-2.25h.5v2.26Z"/>
          <path class="cls-2" d="M90.83,64.6c0,.09-.03.16-.09.22-.06.05-.13.08-.22.08s-.16-.03-.21-.08-.08-.13-.08-.21c0-.09.03-.17.08-.23.05-.06.13-.08.22-.08s.17.03.23.08.08.13.08.23ZM90.67,63.94h-.34l-.11-2.86h.55l-.1,2.86Z"/>
        </g>
        <path class="cls-2" d="M46.38,63.2v-2.09h-.45v2.1c0,.48-.06.75-.21.93-.2.25-.53.38-.97.38-.55,0-.96-.24-1.11-.65-.05-.15-.07-.34-.07-.74v-2.02h-.45v2.08c0,.43.02.63.09.85.18.57.75.9,1.54.9.46,0,.89-.14,1.17-.39.34-.29.46-.64.46-1.35M40.96,64.85h.45l-.14-3.76h-.31l-1.1,2.38-.27.63s-.03.07-.05.13c-.03-.06-.05-.13-.05-.13,0,0-.22-.5-.22-.5l-.09-.2-1.09-2.31h-.33l-.15,3.76h.43l.09-2.68s0,0,0,0c.07.16.24.58.24.58l.99,2.1h.3l.98-2.12.24-.58h0c.02.66.06,2.69.06,2.69M35.87,63.2v-2.09h-.45v2.1c0,.48-.06.75-.21.93-.2.25-.53.38-.97.38-.55,0-.96-.24-1.11-.65-.05-.15-.07-.34-.07-.74v-2.02h-.45v2.08c0,.43.02.63.09.85.18.57.75.9,1.54.9.46,0,.89-.14,1.17-.39.34-.29.46-.64.46-1.35M31.32,64.85s-1.7-2.01-1.74-2.06c.04-.04,1.47-1.49,1.67-1.68h-.58c-.32.32-1.68,1.71-1.78,1.81h0s0-1.81,0-1.81h-.45v3.74h.45v-1.39s.32-.33.37-.38c.05.06,1.49,1.77,1.49,1.77h.57Z"/>
      </g>
    </g>
  </g>
</svg>